<svg width="16" height="16" viewBox="0 0 16 16" fill="none" xmlns="http://www.w3.org/2000/svg">
<path d="M8.00004 1.33333C4.32404 1.33333 1.33337 4.324 1.33337 8C1.33337 11.676 4.32404 14.6667 8.00004 14.6667C11.676 14.6667 14.6667 11.676 14.6667 8C14.6667 4.324 11.676 1.33333 8.00004 1.33333ZM8.00004 13.3333C5.05937 13.3333 2.66671 10.9407 2.66671 8C2.66671 5.05933 5.05937 2.66666 8.00004 2.66666C10.9407 2.66666 13.3334 5.05933 13.3334 8C13.3334 10.9407 10.9407 13.3333 8.00004 13.3333Z" fill="#CCCCCC"/>
<path d="M8.66671 4.66667H7.33337V8.276L9.52871 10.4713L10.4714 9.52867L8.66671 7.72401V4.66667Z" fill="#CCCCCC"/>
</svg>
