<svg width="24" height="24" viewBox="0 0 24 24" fill="none" xmlns="http://www.w3.org/2000/svg">
<path d="M4 2H20C21.103 2 22 2.897 22 4V22L16.667 18H4C2.897 18 2 17.103 2 16V4C2 2.897 2.897 2 4 2ZM4 16H17.333L20 18V4H4V16Z" fill="#276FB4"/>
<path d="M9 12C7.89543 12 7 11.1046 7 10C7 8.89543 7.89543 8 9 8C10.1046 8 11 8.89543 11 10C11 11.1046 10.1046 12 9 12Z" fill="#276FB4"/>
<path d="M15 12C13.8954 12 13 11.1046 13 10C13 8.89543 13.8954 8 15 8C16.1046 8 17 8.89543 17 10C17 11.1046 16.1046 12 15 12Z" fill="#276FB4"/>
</svg>
