<svg width="101" height="124" viewBox="0 0 101 124" fill="none" xmlns="http://www.w3.org/2000/svg">
<g clip-path="url(#clip0)">
<path d="M28.5127 25.0834H18.6472C18.2799 25.0834 17.9126 24.8735 17.7552 24.5587L16.1284 21.6725C15.3937 20.3606 13.9769 19.5735 12.5076 19.5735H4.89861C2.58969 19.5735 0.700562 21.4626 0.700562 23.7715V46.3361H28.5127V25.0834Z" fill="#1C4E80"/>
<path d="M89.8042 101.278H37.8533C32.081 101.278 27.3582 96.5553 27.3582 90.7829V10.4952C27.3582 4.72286 32.081 4.57764e-05 37.8533 4.57764e-05H89.8042C95.5765 4.57764e-05 100.299 4.72286 100.299 10.4952V90.7829C100.299 96.5553 95.5765 101.278 89.8042 101.278Z" fill="#EBEBEB"/>
<path d="M87.7052 18.1042H39.9523C38.7978 18.1042 37.8533 17.1596 37.8533 16.0051C37.8533 14.8507 38.7978 13.9061 39.9523 13.9061H87.7052C88.8596 13.9061 89.8042 14.8507 89.8042 16.0051C89.8042 17.1596 88.8596 18.1042 87.7052 18.1042Z" fill="#CCCCCC"/>
<path d="M87.7052 31.9577H39.9523C38.7978 31.9577 37.8533 31.0132 37.8533 29.8587C37.8533 28.7042 38.7978 27.7597 39.9523 27.7597H87.7052C88.8596 27.7597 89.8042 28.7042 89.8042 29.8587C89.8042 31.0132 88.8596 31.9577 87.7052 31.9577Z" fill="#CCCCCC"/>
<path d="M87.7052 45.8113H39.9523C38.7978 45.8113 37.8533 44.8667 37.8533 43.7123C37.8533 42.5578 38.7978 41.6133 39.9523 41.6133H87.7052C88.8596 41.6133 89.8042 42.5578 89.8042 43.7123C89.8042 44.8667 88.8596 45.8113 87.7052 45.8113Z" fill="#CCCCCC"/>
<path d="M87.7052 59.6649H39.9523C38.7978 59.6649 37.8533 58.7203 37.8533 57.5659C37.8533 56.4114 38.7978 55.4668 39.9523 55.4668H87.7052C88.8596 55.4668 89.8042 56.4114 89.8042 57.5659C89.8042 58.7203 88.8596 59.6649 87.7052 59.6649Z" fill="#CCCCCC"/>
<path d="M87.7052 73.5185H39.9523C38.7978 73.5185 37.8533 72.5739 37.8533 71.4194C37.8533 70.265 38.7978 69.3204 39.9523 69.3204H87.7052C88.8596 69.3204 89.8042 70.265 89.8042 71.4194C89.8042 72.5739 88.8596 73.5185 87.7052 73.5185Z" fill="#CCCCCC"/>
<path d="M87.7052 87.372H39.9523C38.7978 87.372 37.8533 86.4275 37.8533 85.273C37.8533 84.1185 38.7978 83.174 39.9523 83.174H87.7052C88.8596 83.174 89.8042 84.1185 89.8042 85.273C89.8042 86.4275 88.8596 87.372 87.7052 87.372Z" fill="#CCCCCC"/>
<path d="M0.700562 27.4448V32.1676C0.700562 35.631 3.53425 38.4647 6.99764 38.4647H69.4437C74.0615 38.4647 77.8398 42.243 77.8398 46.8608V115.604C77.8398 120.222 74.0615 124 69.4437 124H9.09667C4.47881 124 0.700562 120.222 0.700562 115.604V27.4448Z" fill="#3391ED"/>
<path d="M67.6071 106.893H61.8872V101.173H60.208V106.893H54.4882V108.52H60.208V114.292H61.8872V108.52H67.6071V106.893Z" fill="#1C4E80"/>
</g>
<defs>
<clipPath id="clip0">
<rect width="99.5988" height="124" fill="white" transform="translate(0.700562)"/>
</clipPath>
</defs>
</svg>
