<svg width="12" height="12" viewBox="0 0 12 12" fill="none" xmlns="http://www.w3.org/2000/svg">
<path fill-rule="evenodd" clip-rule="evenodd" d="M1.33333 1.33333V2.76089L5.11252 6.54008C5.112
54 6.5401 5.11249 6.54006 5.11252 6.54008C5.34865 6.77617 5.48141 7.09646 5.48148 7.43038V9.
72386L6.51852 8.68682V7.43052C6.51859 7.0966 6.65128 6.77625 6.88741 6.54015C6.88743 6.
54013 6.88739 6.54017 6.88741 6.54015L10.6667 2.7609V1.33333H1.33333ZM0.368828 0.368828C0.604
985 0.132671 0.925283 0 1.25926 0H10.7407C11.0747 0 11.395 0.132671 11.6312 0.368828C11
.8673 0.604987 12 0.925285 12 1.25926V2.7917C11.9999 3.12562 11.8672 3.44598 11.6311 3.68207C
11.6311 3.6821 11.6311 3.68205 11.6311 3.68207L7.85185 7.46133V8.96296C7.85185 9.13977 7.7816
1 9.30934 7.65659 9.43437L5.28622 11.8047C5.09555 11.9954 4.80881 12.0524 4.55969 11.9493C4.
31058 11.8461 4.14815 11.603 4.14815 11.3333V7.46133L0.368963 3.68214C0.368939 3.6821
2 0.368987 3.68217 0.368963 3.68214C0.132834 3.44605 7.13269e-05 3.12576 0 2.79185V1.259
26C0 0.925283 0.132671 0.604985 0.368828 0.368828Z" fill="#276FB4"/>
</svg>
