<svg width="40" height="28" viewBox="0 0 40 28" fill="none" xmlns="http://www.w3.org/2000/svg">
<path d="M40.0001 4.99338V22.9878C40.0001 24.0562 39.6253 25.0309 39.0067 25.7994L27.3666 12.6223L38.8567 2.01306C39.569 2.80032 40.0001 3.84999 40.0001 4.99338Z" fill="#09549D"/>
<path d="M39.0063 25.8182C38.1815 26.8491 36.9257 27.5052 35.5011 27.5052H4.49826C3.26115 27.5052 2.15524 27.0178 1.34924 26.2118L13.3268 13.3721L18.3127 17.8707C19.3062 18.7142 20.7682 18.7142 21.7429 17.8332L27.3849 12.6223L39.0063 25.8182Z" fill="#3085D9"/>
<path d="M13.3271 13.3533L1.34958 26.1931C0.506092 25.3871 0 24.2437 0 22.9878V4.99344C0 3.94377 0.356139 2.96907 0.974697 2.20056L13.3271 13.3533Z" fill="#09549D"/>
<path d="M1.01233 2.18177L18.2007 19.0328C19.2691 20.0824 20.9749 20.045 22.0058 18.9578C26.1295 14.6279 35.6328 4.59977 36.0639 3.86875C36.6262 2.93154 11.6965 1.43201 11.6965 1.43201L1.94954 1.99433L1.01233 2.18177Z" fill="#215C96"/>
<path d="M38.8569 2.01309L27.3668 12.6223L21.7435 17.8144C20.7688 18.6766 19.3068 18.6954 18.3133 17.8519L13.3274 13.3533L0.974976 2.20053C1.79972 1.1696 3.07432 0.494812 4.49888 0.494812H35.5017C36.8326 0.494812 38.0322 1.07588 38.8569 2.01309Z" fill="#70B2F0"/>
</svg>
