<svg width="22" height="18" viewBox="0 0 22 18" fill="none" xmlns="http://www.w3.org/2000/svg">
<path fill-rule="evenodd" clip-rule="evenodd" d="M2 2.10582C2.00276 2.04691 2.0514 2 2.11099 2H19.8888C19.9484 2 19.9971 2.047 19.9998 2.10599L11 7.60584L2 2.10582ZM1.99988 4.44964L11 9.94973L19.9999 4.44981V15.4444C19.9999 15.5058 19.9501 15.5556 19.8888 15.5556H2.11099C2.04962 15.5556 1.99988 15.5058 1.99988 15.4444V4.44964ZM21.9999 2.6897V15.4444C21.9999 16.6104 21.0547 17.5556 19.8888 17.5556H2.11099C0.945055 17.5556 -0.00012207 16.6104 -0.00012207 15.4444V2.66572V2.11111C-0.00012207 0.945177 0.945055 0 2.11099 0H19.8888C21.0547 0 21.9999 0.945177 21.9999 2.11111V2.64174C22.0003 2.65775 22.0003 2.67374 21.9999 2.6897Z" fill="#AAAAAA"/>
</svg>
