<svg width="157" height="110" viewBox="0 0 157 110" fill="none" xmlns="http://www.w3.org/2000/svg">
<g clip-path="url(#clip0)">
<path d="M105.716 50.7105V98.043C105.716 100.853 104.73 103.417 103.103 105.439L72.4849 70.7775L102.709 42.871C104.582 44.9418 105.716 47.7029 105.716 50.7105Z" fill="#276FB4"/>
<path d="M103.103 105.488C100.934 108.2 97.6303 109.925 93.8832 109.925H12.3332C9.07913 109.925 6.17015 108.643 4.05005 106.523L35.5557 72.7497L48.6708 84.5828C51.2839 86.8015 55.1297 86.8015 57.6935 84.4842L72.5342 70.7775L103.103 105.488Z" fill="#3085D9"/>
<path d="M35.5556 72.7004L4.04994 106.474C1.83123 104.354 0.5 101.346 0.5 98.043V50.7105C0.5 47.9494 1.43679 45.3856 3.06384 43.3641L35.5556 72.7004Z" fill="#276FB4"/>
<path d="M3.16235 43.3148L48.3747 87.6397C51.1851 90.4007 55.6718 90.3021 58.3836 87.4425C69.2306 76.0531 94.2281 49.6751 95.3621 47.7522C96.8412 45.287 31.266 41.3426 31.266 41.3426L5.62759 42.8217L3.16235 43.3148Z" fill="#215C96"/>
<path d="M102.709 42.871L72.485 70.7775L57.6936 84.4349C55.1297 86.7029 51.2839 86.7522 48.6708 84.5335L35.5557 72.7004L3.06396 43.3641C5.23337 40.6523 8.58609 38.8774 12.3332 38.8774H93.8832C97.3838 38.8774 100.539 40.4058 102.709 42.871Z" fill="#3391ED"/>
<path d="M142.843 0.123886H81.902C74.3584 0.123886 68.2446 6.23767 68.2446 13.7813V49.5765C68.2446 57.1201 74.3584 63.2339 81.902 63.2339H87.2269V70.4324C87.2269 71.5664 88.5582 72.158 89.3963 71.4678L99.3066 63.2339H142.843C150.386 63.2339 156.5 57.1201 156.5 49.5765V13.7813C156.5 6.23767 150.386 0.123886 142.843 0.123886Z" fill="#EBEBEB"/>
<path d="M97.0879 32.7143C99.2663 32.7143 101.032 30.9483 101.032 28.7699C101.032 26.5915 99.2663 24.8255 97.0879 24.8255C94.9095 24.8255 93.1436 26.5915 93.1436 28.7699C93.1436 30.9483 94.9095 32.7143 97.0879 32.7143Z" fill="#F68E39"/>
<path d="M112.372 32.7143C114.551 32.7143 116.317 30.9483 116.317 28.7699C116.317 26.5915 114.551 24.8255 112.372 24.8255C110.194 24.8255 108.428 26.5915 108.428 28.7699C108.428 30.9483 110.194 32.7143 112.372 32.7143Z" fill="#F68E39"/>
<path d="M127.657 32.7143C129.835 32.7143 131.601 30.9483 131.601 28.7699C131.601 26.5915 129.835 24.8255 127.657 24.8255C125.478 24.8255 123.712 26.5915 123.712 28.7699C123.712 30.9483 125.478 32.7143 127.657 32.7143Z" fill="#F68E39"/>
</g>
<defs>
<clipPath id="clip0">
<rect width="156" height="109.752" fill="white" transform="translate(0.5 0.123886)"/>
</clipPath>
</defs>
</svg>
