<svg
                    id="notification-icon"
                    width="31"
                    height="30"
                    viewBox="0 0 31 30"
                    fill="none"
                    xmlns="http://www.w3.org/2000/svg"
                  >
                    <path
                      fillRule="evenodd"
                      clipRule="evenodd"
                      d="M17 18.25V24.25H3V17.281C3 14.0826 5.12629 11.3829 8.03654 10.5304C8.11506 9.76152 8.318 9.02949 8.62492 8.35477C4.30745 9.01903 1 12.7622 1 17.281V24.25H0V26.25H20V24.25H19V18.25H17ZM11.7678 29.0178C12.2366 28.5489 12.5 27.913 12.5 27.25H7.5C7.5 27.913 7.76339 28.5489 8.23223 29.0178C8.70107 29.4866 9.33696 29.75 10 29.75C10.663 29.75 11.2989 29.4866 11.7678 29.0178Z"
                      fill="#666666"
                    />
                    <rect
                      x="10"
                      y="0.25"
                      width="21"
                      height="16"
                      rx="8"
                      fill="#D34A4A"
                    />
                    <path
                      d="M17 4.97C17.4667 4.97 17.8667 5.05333 18.2 5.22C18.5333 5.38 18.7833 5.60333 18.95 5.89C19.1233 6.17667 19.21 6.49667 19.21 6.85C19.21 7.29667 19.0833 7.67 18.83 7.97C18.5833 8.26333 18.2333 8.44 17.78 8.5V8.55C18.2667 8.69 18.6467 8.9 18.92 9.18C19.2 9.45333 19.34 9.83333 19.34 10.32C19.34 10.9133 19.1433 11.3967 18.75 11.77C18.3567 12.1367 17.7933 12.32 17.06 12.32C16.3067 12.32 15.7 12.13 15.24 11.75C14.78 11.3633 14.5167 10.7933 14.45 10.04H15.58C15.62 10.44 15.7633 10.76 16.01 11C16.2567 11.2333 16.59 11.35 17.01 11.35C17.4033 11.35 17.7033 11.2467 17.91 11.04C18.1233 10.8333 18.23 10.5667 18.23 10.24C18.23 9.84667 18.0767 9.54667 17.77 9.34C17.47 9.13333 17.0333 9.03 16.46 9.03H16.19V8.09H16.46C17.5467 8.10333 18.09 7.73333 18.09 6.98C18.09 6.65333 17.99 6.39667 17.79 6.21C17.59 6.02333 17.3167 5.93 16.97 5.93C16.6233 5.93 16.3333 6.03667 16.1 6.25C15.8667 6.45667 15.7267 6.76 15.68 7.16H14.56C14.6067 6.46667 14.84 5.93 15.26 5.55C15.68 5.16333 16.26 4.97 17 4.97ZM20.7575 8.67C20.7575 9.79667 20.9575 10.68 21.3575 11.32C21.7575 11.9533 22.4242 12.27 23.3575 12.27C24.2908 12.27 24.9575 11.95 25.3575 11.31C25.7575 10.67 25.9575 9.79 25.9575 8.67C25.9575 7.55667 25.7575 6.68333 25.3575 6.05C24.9575 5.41 24.2908 5.09 23.3575 5.09C22.4242 5.09 21.7575 5.40667 21.3575 6.04C20.9575 6.67333 20.7575 7.55 20.7575 8.67ZM24.8175 8.67C24.8175 9.48333 24.7175 10.1067 24.5175 10.54C24.3175 10.9733 23.9308 11.19 23.3575 11.19C22.7775 11.19 22.3875 10.9733 22.1875 10.54C21.9875 10.1067 21.8875 9.48333 21.8875 8.67C21.8875 7.86333 21.9875 7.24667 22.1875 6.82C22.3875 6.39333 22.7775 6.18 23.3575 6.18C23.9308 6.18 24.3175 6.39667 24.5175 6.83C24.7175 7.25667 24.8175 7.87 24.8175 8.67Z"
                      fill="white"
                    />
                  </svg>