<svg width="20" height="21" viewBox="0 0 20 21" fill="none" xmlns="http://www.w3.org/2000/svg">
<path d="M3.33587 18C3.40337 18 3.47087 17.9917 3.53754 17.975L6.87087 17.1417C7.01754 17.105 7.15171 17.0292 7.25838 16.9225L17.5025 6.67836C17.8175 6.36336 17.9909 5.94503 17.9909 5.50003C17.9909 5.05503 17.8175 4.63669 17.5025 4.32169L16.1809 3.00003C15.5509 2.37003 14.4542 2.37003 13.8242 3.00003L3.58004 13.2442C3.47343 13.3509 3.39769 13.4846 3.36087 13.6309L2.52754 16.9642C2.49676 17.0871 2.4944 17.2153 2.52063 17.3393C2.54686 17.4632 2.601 17.5795 2.67893 17.6794C2.75686 17.7792 2.85653 17.86 2.97036 17.9156C3.0842 17.9711 3.2092 18 3.33587 18ZM15.0025 4.17836L16.3242 5.50003L15.0025 6.82169L13.6809 5.50003L15.0025 4.17836ZM4.92171 14.2592L12.5025 6.67836L13.8242 8.00003L6.24254 15.5809L4.48087 16.0209L4.92171 14.2592Z" fill="white"/>
</svg>
