<svg width="19" height="19" viewBox="0 0 19 19" fill="none" xmlns="http://www.w3.org/2000/svg">
<path d="M1.0029 19C1.0839 19 1.1649 18.99 1.2449 18.97L5.2449 17.97C5.4209 17.926 5.5819 17.835 5.7099 17.707L18.0029 5.41401C18.3809 5.03601 18.5889 4.53401 18.5889 4.00001C18.5889 3.46601 18.3809 2.96401 18.0029 2.58601L16.4169 1.00001C15.6609 0.244014 14.3449 0.244014 13.5889 1.00001L1.2959 13.293C1.16797 13.4211 1.07709 13.5814 1.0329 13.757L0.0329034 17.757C-0.00403403 17.9045 -0.00687104 18.0584 0.0246078 18.2071C0.0560867 18.3558 0.121053 18.4954 0.214569 18.6152C0.308085 18.7351 0.427689 18.832 0.564291 18.8987C0.700893 18.9654 0.850897 19 1.0029 19ZM15.0029 2.41401L16.5889 4.00001L15.0029 5.58601L13.4169 4.00001L15.0029 2.41401ZM2.9059 14.511L12.0029 5.41401L13.5889 7.00001L4.4909 16.097L2.3769 16.625L2.9059 14.511Z" fill="#276FB4"/>
</svg>
