<svg
                width="20"
                height="20"
                viewBox="0 0 20 20"
                fill="none"
                xmlns="http://www.w3.org/2000/svg"
              >
                <path
                  d="M15.4545 5.95455H20V7.77273H15.4545V5.95455ZM13.6364 10.5H20V12.3182H13.6364V10.5ZM16.3636 15.0455H20V16.8636H16.3636V15.0455ZM0 19.5909C0 17.6621 0.766232 15.8122 2.13013 14.4483C3.49403 13.0844 5.34388 12.3182 7.27273 12.3182C9.20158 12.3182 11.0514 13.0844 12.4153 14.4483C13.7792 15.8122 14.5455 17.6621 14.5455 19.5909H12.7273C12.7273 18.1443 12.1526 16.7569 11.1297 15.734C10.1067 14.711 8.71936 14.1364 7.27273 14.1364C5.82609 14.1364 4.43871 14.711 3.41578 15.734C2.39286 16.7569 1.81818 18.1443 1.81818 19.5909H0ZM7.27273 11.4091C4.25909 11.4091 1.81818 8.96818 1.81818 5.95455C1.81818 2.94091 4.25909 0.5 7.27273 0.5C10.2864 0.5 12.7273 2.94091 12.7273 5.95455C12.7273 8.96818 10.2864 11.4091 7.27273 11.4091ZM7.27273 9.59091C9.28182 9.59091 10.9091 7.96364 10.9091 5.95455C10.9091 3.94545 9.28182 2.31818 7.27273 2.31818C5.26364 2.31818 3.63636 3.94545 3.63636 5.95455C3.63636 7.96364 5.26364 9.59091 7.27273 9.59091Z"
                  fill="#888888"
                ></path>
              </svg>