<svg
              width="16"
              height="16"
              viewBox="0 0 18 18"
              fill="none"
              xmlns="http://www.w3.org/2000/svg"
            >
              <path
                d="M12.3582 4.76148L7.50807 6.97821C7.2735 7.08543 7.08539 7.27354 6.97816 7.50812L4.76143 12.3583C4.50572 12.9177 5.08199 13.4943 5.64181 13.2386L10.4919 11.0219C10.7265 10.9147 10.9146 10.7266 11.0218 10.492L13.2386 5.64185C13.4943 5.08204 12.918 4.50576 12.3582 4.76148ZM9.75874 9.75879C9.33972 10.1778 8.66029 10.1778 8.24127 9.75879C7.82225 9.33977 7.82225 8.66033 8.24127 8.24131C8.66029 7.8223 9.33972 7.8223 9.75874 8.24131C10.1778 8.66033 10.1778 9.33977 9.75874 9.75879ZM9.00001 0.666718C4.39752 0.666718 0.666672 4.39756 0.666672 9.00005C0.666672 13.6025 4.39752 17.3334 9.00001 17.3334C13.6025 17.3334 17.3333 13.6025 17.3333 9.00005C17.3333 4.39756 13.6025 0.666718 9.00001 0.666718ZM9.00001 15.7205C5.29436 15.7205 2.27958 12.7057 2.27958 9.00005C2.27958 5.29441 5.29436 2.27962 9.00001 2.27962C12.7057 2.27962 15.7204 5.29441 15.7204 9.00005C15.7204 12.7057 12.7057 15.7205 9.00001 15.7205Z"
                fill="#F68E39"
              />
            </svg>