<?xml version="1.0" encoding="UTF-8"?>
<!DOCTYPE svg PUBLIC "-//W3C//DTD SVG 1.1//EN" "http://www.w3.org/Graphics/SVG/1.1/DTD/svg11.dtd">
<svg xmlns="http://www.w3.org/2000/svg" version="1.1" width="5334px" height="3205px" style="shape-rendering:geometricPrecision; text-rendering:geometricPrecision; image-rendering:optimizeQuality; fill-rule:evenodd; clip-rule:evenodd" xmlns:xlink="http://www.w3.org/1999/xlink">
<g><path style="opacity:0.998" fill="#4d9006" d="M 2423.5,881.5 C 2656.17,881.333 2888.83,881.5 3121.5,882C 3180.31,884.971 3225.81,910.805 3258,959.5C 3375,1162.17 3492,1364.83 3609,1567.5C 3634.52,1621.32 3633.52,1674.66 3606,1727.5C 3490.08,1927.67 3374.41,2128 3259,2328.5C 3228.93,2375.14 3186.09,2401.31 3130.5,2407C 2891.83,2407.67 2653.17,2407.67 2414.5,2407C 2360.42,2401.39 2318.25,2376.22 2288,2331.5C 2171.33,2129.5 2054.67,1927.5 1938,1725.5C 1914.98,1681.4 1911.32,1635.73 1927,1588.5C 1932.95,1573.94 1939.95,1559.94 1948,1546.5C 2063,1347.83 2178,1149.17 2293,950.5C 2325.88,907.639 2369.38,884.639 2423.5,881.5 Z"/></g>
<g><path style="opacity:1" fill="#fefefe" d="M 2759.5,1005.5 C 2795.06,1002.2 2822.23,1015.53 2841,1045.5C 2857.81,1082.43 2851.64,1114.93 2822.5,1143C 2798.07,1161.35 2771.4,1165.35 2742.5,1155C 2712.29,1140.6 2696.29,1116.6 2694.5,1083C 2697.54,1041.47 2719.21,1015.63 2759.5,1005.5 Z"/></g>
<g><path style="opacity:1" fill="#fefefe" d="M 2728.5,1237.5 C 2789.06,1234.57 2848.73,1240.41 2907.5,1255C 2950.82,1266.23 2988.32,1287.4 3020,1318.5C 3053.29,1357.85 3070.12,1403.51 3070.5,1455.5C 3024.5,1455.83 2978.5,1455.5 2932.5,1454.5C 2927.22,1403.38 2899.88,1370.55 2850.5,1356C 2804.6,1344.5 2758.27,1342.5 2711.5,1350C 2686.34,1354.92 2663.01,1364.25 2641.5,1378C 2607.87,1405.01 2597.7,1439.18 2611,1480.5C 2616.94,1495.77 2627.1,1507.27 2641.5,1515C 2664.07,1525.64 2687.41,1534.3 2711.5,1541C 2764.67,1555.62 2818,1569.62 2871.5,1583C 2918.02,1595.62 2962.69,1612.95 3005.5,1635C 3038.78,1651.61 3063.28,1676.78 3079,1710.5C 3093.66,1748.49 3099,1787.82 3095,1828.5C 3087.95,1891.1 3060.12,1942.27 3011.5,1982C 2974.95,2011.27 2933.61,2030.94 2887.5,2041C 2805.92,2057.1 2724.58,2055.77 2643.5,2037C 2521.29,2005.95 2456.62,1927.45 2449.5,1801.5C 2495.83,1801.5 2542.17,1801.5 2588.5,1801.5C 2589.73,1871.24 2624.07,1915.07 2691.5,1933C 2743.19,1945.4 2795.19,1946.73 2847.5,1937C 2888.87,1928.92 2921.03,1907.42 2944,1872.5C 2957.76,1846.12 2961.09,1818.45 2954,1789.5C 2948.34,1772.18 2937.84,1758.68 2922.5,1749C 2898.72,1737.18 2874.06,1727.52 2848.5,1720C 2784.5,1702.33 2720.5,1684.67 2656.5,1667C 2616.37,1654.76 2578.04,1638.43 2541.5,1618C 2513.03,1601.24 2492.86,1577.41 2481,1546.5C 2465.58,1499.4 2463.58,1451.74 2475,1403.5C 2488.63,1360.41 2513.46,1325.24 2549.5,1298C 2590.88,1267.49 2637.21,1248.83 2688.5,1242C 2701.98,1240.48 2715.32,1238.98 2728.5,1237.5 Z"/></g>
<g><path style="opacity:1" fill="#fefefe" d="M 2762.5,2128.5 C 2800.94,2126.84 2828.44,2143.17 2845,2177.5C 2855.76,2210.27 2849.26,2239.11 2825.5,2264C 2790.14,2291.33 2754.81,2291.33 2719.5,2264C 2698.26,2242.22 2690.76,2216.39 2697,2186.5C 2707.74,2154.59 2729.58,2135.25 2762.5,2128.5 Z"/></g>
</svg>
