<?xml version="1.0" encoding="UTF-8"?>
<!DOCTYPE svg PUBLIC "-//W3C//DTD SVG 1.1//EN" "http://www.w3.org/Graphics/SVG/1.1/DTD/svg11.dtd">
<svg xmlns="http://www.w3.org/2000/svg" version="1.1" width="5335px" height="3205px" style="shape-rendering:geometricPrecision; text-rendering:geometricPrecision; image-rendering:optimizeQuality; fill-rule:evenodd; clip-rule:evenodd" xmlns:xlink="http://www.w3.org/1999/xlink">
<g><path style="opacity:0.995" fill="#1a87de" d="M 2649.5,802.5 C 2867.35,801.247 3056.01,873.747 3215.5,1020C 3379.15,1178.72 3462.82,1372.72 3466.5,1602C 3462.02,1843.34 3370.69,2044.34 3192.5,2205C 3023.24,2348.31 2827.24,2412.97 2604.5,2399C 2388.01,2379.17 2207.84,2288.67 2064,2127.5C 1915.59,1951.91 1851.59,1748.91 1872,1518.5C 1896.97,1307.69 1988.81,1132.85 2147.5,994C 2292.28,872.497 2459.61,808.664 2649.5,802.5 Z"/></g>
<g><path style="opacity:1" fill="#feba0e" d="M 2762.5,904.5 C 2805.83,948.167 2849.17,991.833 2892.5,1035.5C 2873.63,1029.16 2854.29,1022.99 2834.5,1017C 2700.7,981.021 2569.37,987.521 2440.5,1036.5C 2484.17,992.5 2527.83,948.5 2571.5,904.5C 2612.94,861.81 2661.61,850.976 2717.5,872C 2734.61,879.954 2749.61,890.787 2762.5,904.5 Z"/></g>
<g><path style="opacity:1" fill="#fefefe" d="M 2571.5,904.5 C 2527.83,948.5 2484.17,992.5 2440.5,1036.5C 2367.2,1109.3 2294.03,1182.3 2221,1255.5C 2186.88,1298.47 2181.38,1344.81 2204.5,1394.5C 2208.44,1404.05 2214.1,1412.39 2221.5,1419.5C 2253.78,1453.45 2286.78,1486.78 2320.5,1519.5C 2369.83,1569.5 2419.5,1619.17 2469.5,1668.5C 2482.8,1682.3 2496.3,1695.97 2510,1709.5C 2509.26,1712.71 2508.76,1716.04 2508.5,1719.5C 2507.17,1882.17 2507.17,2044.83 2508.5,2207.5C 2509.07,2211.32 2510.24,2214.99 2512,2218.5C 2514.67,2221.83 2517.33,2225.17 2520,2228.5C 2544.73,2252.73 2568.9,2277.4 2592.5,2302.5C 2395.04,2278.22 2234.54,2188.88 2111,2034.5C 2004.86,1894.69 1955.86,1736.69 1964,1560.5C 1979.26,1360.47 2062.1,1194.97 2212.5,1064C 2316.54,976.776 2436.21,923.609 2571.5,904.5 Z"/></g>
<g><path style="opacity:1" fill="#fefefe" d="M 2762.5,904.5 C 2946.27,932.109 3097.11,1017.11 3215,1159.5C 3343.45,1323.61 3392.45,1509.28 3362,1716.5C 3327.4,1906.25 3233.24,2058.41 3079.5,2173C 2973.88,2248.38 2856.22,2291.88 2726.5,2303.5C 2758.53,2270.81 2790.86,2238.47 2823.5,2206.5C 2834.16,2196.67 2844.33,2186.34 2854,2175.5C 2860.56,2162.4 2859.89,2149.73 2852,2137.5C 2839.63,2124.8 2827.63,2111.8 2816,2098.5C 2811.97,2090.66 2810.47,2082.33 2811.5,2073.5C 2813.13,2068.91 2815.29,2064.58 2818,2060.5C 2830.71,2046.8 2843.04,2032.8 2855,2018.5C 2862.81,2004.69 2862.14,1991.36 2853,1978.5C 2838.97,1964.7 2826.14,1950.03 2814.5,1934.5C 2811.44,1924.97 2811.94,1915.63 2816,1906.5C 2828.29,1891.87 2840.96,1877.54 2854,1863.5C 2862.62,1850.14 2862.62,1836.81 2854,1823.5C 2836.6,1804.27 2819.43,1784.94 2802.5,1765.5C 2797.71,1758.87 2792.04,1753.04 2785.5,1748C 2812.37,1721.3 2839.03,1694.47 2865.5,1667.5C 2915.5,1618.17 2965.17,1568.5 3014.5,1518.5C 3048.53,1485.47 3081.86,1451.8 3114.5,1417.5C 3120.98,1410.34 3126.31,1402.34 3130.5,1393.5C 3152.48,1343.89 3146.65,1297.89 3113,1255.5C 3039.63,1181.97 2966.13,1108.63 2892.5,1035.5C 2849.17,991.833 2805.83,948.167 2762.5,904.5 Z"/></g>
<g><path style="opacity:1" fill="#ffbe0d" d="M 2892.5,1035.5 C 2966.13,1108.63 3039.63,1181.97 3113,1255.5C 3146.65,1297.89 3152.48,1343.89 3130.5,1393.5C 3056.93,1245.98 2939.93,1152.15 2779.5,1112C 2629.69,1081.36 2492.36,1109.69 2367.5,1197C 2296.85,1249.47 2242.52,1315.3 2204.5,1394.5C 2181.38,1344.81 2186.88,1298.47 2221,1255.5C 2294.03,1182.3 2367.2,1109.3 2440.5,1036.5C 2569.37,987.521 2700.7,981.021 2834.5,1017C 2854.29,1022.99 2873.63,1029.16 2892.5,1035.5 Z"/></g>
<g><path style="opacity:1" fill="#ffc00c" d="M 3130.5,1393.5 C 3126.31,1402.34 3120.98,1410.34 3114.5,1417.5C 3052.35,1282.2 2950.35,1191.37 2808.5,1145C 2664.99,1104.65 2529.99,1123.65 2403.5,1202C 2321.23,1256.44 2260.56,1328.94 2221.5,1419.5C 2214.1,1412.39 2208.44,1404.05 2204.5,1394.5C 2242.52,1315.3 2296.85,1249.47 2367.5,1197C 2492.36,1109.69 2629.69,1081.36 2779.5,1112C 2939.93,1152.15 3056.93,1245.98 3130.5,1393.5 Z"/></g>
<g><path style="opacity:1" fill="#ffc40b" d="M 3114.5,1417.5 C 3081.86,1451.8 3048.53,1485.47 3014.5,1518.5C 2999.03,1465.89 2973.86,1418.55 2939,1376.5C 2929.66,1365.99 2919.83,1355.99 2909.5,1346.5C 2911.16,1332.31 2905.16,1323.15 2891.5,1319C 2885.84,1318.5 2880.18,1318.33 2874.5,1318.5C 2793.98,1262.29 2704.98,1241.79 2607.5,1257C 2553.59,1266.34 2504.59,1286.84 2460.5,1318.5C 2441.44,1317.56 2431.77,1326.56 2431.5,1345.5C 2430.73,1344.74 2430.23,1343.74 2430,1342.5C 2376.54,1390.84 2340.04,1449.84 2320.5,1519.5C 2286.78,1486.78 2253.78,1453.45 2221.5,1419.5C 2260.56,1328.94 2321.23,1256.44 2403.5,1202C 2529.99,1123.65 2664.99,1104.65 2808.5,1145C 2950.35,1191.37 3052.35,1282.2 3114.5,1417.5 Z"/></g>
<g><path style="opacity:1" fill="#ffc80a" d="M 2874.5,1318.5 C 2736.5,1318.5 2598.5,1318.5 2460.5,1318.5C 2504.59,1286.84 2553.59,1266.34 2607.5,1257C 2704.98,1241.79 2793.98,1262.29 2874.5,1318.5 Z"/></g>
<g><path style="opacity:1" fill="#ffa300" d="M 2460.5,1318.5 C 2598.5,1318.5 2736.5,1318.5 2874.5,1318.5C 2880.18,1318.33 2885.84,1318.5 2891.5,1319C 2905.16,1323.15 2911.16,1332.31 2909.5,1346.5C 2907.08,1356.09 2901.08,1362.25 2891.5,1365C 2744.17,1365.67 2596.83,1365.67 2449.5,1365C 2439.5,1362.16 2433.5,1355.66 2431.5,1345.5C 2431.77,1326.56 2441.44,1317.56 2460.5,1318.5 Z"/></g>
<g><path style="opacity:1" fill="#ffcb09" d="M 2431.5,1345.5 C 2433.5,1355.66 2439.5,1362.16 2449.5,1365C 2596.83,1365.67 2744.17,1365.67 2891.5,1365C 2901.08,1362.25 2907.08,1356.09 2909.5,1346.5C 2919.83,1355.99 2929.66,1365.99 2939,1376.5C 2973.86,1418.55 2999.03,1465.89 3014.5,1518.5C 2965.17,1568.5 2915.5,1618.17 2865.5,1667.5C 2883.74,1592.8 2867.58,1526.47 2817,1468.5C 2813.8,1464.96 2810.3,1461.8 2806.5,1459C 2713.83,1458.33 2621.17,1458.33 2528.5,1459C 2489.79,1494.93 2467.95,1539.43 2463,1592.5C 2461.03,1617.79 2463.53,1642.62 2470.5,1667C 2470.43,1667.76 2470.1,1668.26 2469.5,1668.5C 2419.5,1619.17 2369.83,1569.5 2320.5,1519.5C 2340.04,1449.84 2376.54,1390.84 2430,1342.5C 2430.23,1343.74 2430.73,1344.74 2431.5,1345.5 Z"/></g>
<g><path style="opacity:1" fill="#ffa300" d="M 2448.5,1411.5 C 2595.83,1411.33 2743.17,1411.5 2890.5,1412C 2909.47,1418.11 2914.63,1430.28 2906,1448.5C 2902.35,1452.74 2897.85,1455.57 2892.5,1457C 2743.83,1457.67 2595.17,1457.67 2446.5,1457C 2433.52,1450.86 2428.68,1440.69 2432,1426.5C 2435.57,1419.31 2441.07,1414.31 2448.5,1411.5 Z"/></g>
<g><path style="opacity:1" fill="#ffd107" d="M 2865.5,1667.5 C 2839.03,1694.47 2812.37,1721.3 2785.5,1748C 2792.04,1753.04 2797.71,1758.87 2802.5,1765.5C 2785.35,1778.92 2766.68,1790.09 2746.5,1799C 2707.63,1814.75 2667.63,1818.58 2626.5,1810.5C 2624.01,1794.52 2614.68,1787.35 2598.5,1789C 2593.23,1789.96 2588.9,1792.46 2585.5,1796.5C 2555.03,1784.04 2529.36,1765.04 2508.5,1739.5C 2508.5,1732.83 2508.5,1726.17 2508.5,1719.5C 2508.76,1716.04 2509.26,1712.71 2510,1709.5C 2496.3,1695.97 2482.8,1682.3 2469.5,1668.5C 2470.1,1668.26 2470.43,1667.76 2470.5,1667C 2463.53,1642.62 2461.03,1617.79 2463,1592.5C 2467.95,1539.43 2489.79,1494.93 2528.5,1459C 2621.17,1458.33 2713.83,1458.33 2806.5,1459C 2810.3,1461.8 2813.8,1464.96 2817,1468.5C 2867.58,1526.47 2883.74,1592.8 2865.5,1667.5 Z"/></g>
<g><path style="opacity:1" fill="#ffd506" d="M 2659.5,1534.5 C 2700.11,1533.54 2726.95,1552.21 2740,1590.5C 2747.03,1627.77 2734.53,1656.27 2702.5,1676C 2665.94,1691.81 2634.44,1684.98 2608,1655.5C 2587.33,1624.85 2587.33,1594.18 2608,1563.5C 2621.69,1547.41 2638.86,1537.74 2659.5,1534.5 Z"/></g>
<g><path style="opacity:1" fill="#ffcb09" d="M 2508.5,1739.5 C 2529.36,1765.04 2555.03,1784.04 2585.5,1796.5C 2582.73,1800.03 2581.07,1804.03 2580.5,1808.5C 2579.5,1857.33 2579.17,1906.33 2579.5,1955.5C 2567.26,1952.92 2555.26,1949.42 2543.5,1945C 2531.76,1940.26 2520.09,1935.42 2508.5,1930.5C 2508.5,1866.83 2508.5,1803.17 2508.5,1739.5 Z"/></g>
<g><path style="opacity:1" fill="#ffcb0a" d="M 2802.5,1765.5 C 2819.43,1784.94 2836.6,1804.27 2854,1823.5C 2862.62,1836.81 2862.62,1850.14 2854,1863.5C 2840.96,1877.54 2828.29,1891.87 2816,1906.5C 2811.94,1915.63 2811.44,1924.97 2814.5,1934.5C 2785.13,1948.77 2754.13,1958.27 2721.5,1963C 2689.87,1967.88 2658.21,1968.38 2626.5,1964.5C 2626.5,1913.17 2626.5,1861.83 2626.5,1810.5C 2667.63,1818.58 2707.63,1814.75 2746.5,1799C 2766.68,1790.09 2785.35,1778.92 2802.5,1765.5 Z"/></g>
<g><path style="opacity:1" fill="#ffa300" d="M 2626.5,1810.5 C 2626.5,1861.83 2626.5,1913.17 2626.5,1964.5C 2626.5,2007.5 2626.5,2050.5 2626.5,2093.5C 2626.67,2123.17 2626.5,2152.84 2626,2182.5C 2623.11,2194.89 2615.28,2201.22 2602.5,2201.5C 2591.68,2200.52 2584.51,2194.85 2581,2184.5C 2580.5,2137.83 2580.33,2091.17 2580.5,2044.5C 2580.5,1965.83 2580.5,1887.17 2580.5,1808.5C 2581.07,1804.03 2582.73,1800.03 2585.5,1796.5C 2588.9,1792.46 2593.23,1789.96 2598.5,1789C 2614.68,1787.35 2624.01,1794.52 2626.5,1810.5 Z"/></g>
<g><path style="opacity:1" fill="#ffc518" d="M 2508.5,1719.5 C 2508.5,1726.17 2508.5,1732.83 2508.5,1739.5C 2508.5,1803.17 2508.5,1866.83 2508.5,1930.5C 2520.09,1935.42 2531.76,1940.26 2543.5,1945C 2555.26,1949.42 2567.26,1952.92 2579.5,1955.5C 2579.17,1906.33 2579.5,1857.33 2580.5,1808.5C 2580.5,1887.17 2580.5,1965.83 2580.5,2044.5C 2579.5,2058.32 2579.17,2072.32 2579.5,2086.5C 2555.39,2082.22 2531.72,2076.22 2508.5,2068.5C 2508.5,2113.83 2508.5,2159.17 2508.5,2204.5C 2508.5,2205.5 2508.5,2206.5 2508.5,2207.5C 2507.17,2044.83 2507.17,1882.17 2508.5,1719.5 Z"/></g>
<g><path style="opacity:1" fill="#ffc40b" d="M 2814.5,1934.5 C 2826.14,1950.03 2838.97,1964.7 2853,1978.5C 2862.14,1991.36 2862.81,2004.69 2855,2018.5C 2843.04,2032.8 2830.71,2046.8 2818,2060.5C 2815.29,2064.58 2813.13,2068.91 2811.5,2073.5C 2751.08,2091.44 2689.41,2098.1 2626.5,2093.5C 2626.5,2050.5 2626.5,2007.5 2626.5,1964.5C 2658.21,1968.38 2689.87,1967.88 2721.5,1963C 2754.13,1958.27 2785.13,1948.77 2814.5,1934.5 Z"/></g>
<g><path style="opacity:1" fill="#ffbe0d" d="M 2580.5,2044.5 C 2580.33,2091.17 2580.5,2137.83 2581,2184.5C 2584.51,2194.85 2591.68,2200.52 2602.5,2201.5C 2615.28,2201.22 2623.11,2194.89 2626,2182.5C 2626.5,2152.84 2626.67,2123.17 2626.5,2093.5C 2689.41,2098.1 2751.08,2091.44 2811.5,2073.5C 2810.47,2082.33 2811.97,2090.66 2816,2098.5C 2827.63,2111.8 2839.63,2124.8 2852,2137.5C 2859.89,2149.73 2860.56,2162.4 2854,2175.5C 2844.33,2186.34 2834.16,2196.67 2823.5,2206.5C 2823.08,2205.88 2822.42,2205.54 2821.5,2205.5C 2717.08,2232.33 2612.74,2232 2508.5,2204.5C 2508.5,2159.17 2508.5,2113.83 2508.5,2068.5C 2531.72,2076.22 2555.39,2082.22 2579.5,2086.5C 2579.17,2072.32 2579.5,2058.32 2580.5,2044.5 Z"/></g>
<g><path style="opacity:1" fill="#febb0f" d="M 2508.5,2204.5 C 2612.74,2232 2717.08,2232.33 2821.5,2205.5C 2822.42,2205.54 2823.08,2205.88 2823.5,2206.5C 2790.86,2238.47 2758.53,2270.81 2726.5,2303.5C 2710.7,2318.8 2695.03,2334.3 2679.5,2350C 2666.14,2358.56 2652.81,2358.56 2639.5,2350C 2623.6,2334.27 2607.94,2318.44 2592.5,2302.5C 2568.9,2277.4 2544.73,2252.73 2520,2228.5C 2517.33,2225.17 2514.67,2221.83 2512,2218.5C 2510.24,2214.99 2509.07,2211.32 2508.5,2207.5C 2508.5,2206.5 2508.5,2205.5 2508.5,2204.5 Z"/></g>
</svg>
