<?xml version="1.0" encoding="UTF-8"?>
<!DOCTYPE svg PUBLIC "-//W3C//DTD SVG 1.1//EN" "http://www.w3.org/Graphics/SVG/1.1/DTD/svg11.dtd">
<svg xmlns="http://www.w3.org/2000/svg" version="1.1" width="5334px" height="3205px" style="shape-rendering:geometricPrecision; text-rendering:geometricPrecision; image-rendering:optimizeQuality; fill-rule:evenodd; clip-rule:evenodd" xmlns:xlink="http://www.w3.org/1999/xlink">
<g><path style="opacity:0.994" fill="#60bbd9" d="M 2876.5,977.5 C 2864.34,1025.19 2876.01,1066.02 2911.5,1100C 2942.71,1126.65 2977.04,1131.65 3014.5,1115C 3041.34,1097.17 3055,1072 3055.5,1039.5C 3053.72,991.925 3032.05,956.758 2990.5,934C 2967.57,924.157 2944.24,922.99 2920.5,930.5C 2950.28,913.774 2980.28,897.274 3010.5,881C 3051,866.166 3086.5,873.999 3117,904.5C 3149.05,939.746 3157.72,980.079 3143,1025.5C 3137.39,1038.21 3129.22,1049.05 3118.5,1058C 3098.99,1069.25 3079.33,1080.25 3059.5,1091C 3068.46,1090.31 3075.63,1093.47 3081,1100.5C 3081.67,1101.83 3081.67,1103.17 3081,1104.5C 3076.63,1111.61 3074.29,1119.28 3074,1127.5C 3089.19,1118.91 3104.52,1110.57 3120,1102.5C 3144.42,1109.98 3168.59,1118.14 3192.5,1127C 3210.68,1136.53 3222.18,1151.36 3227,1171.5C 3229.33,1180.83 3231.67,1190.17 3234,1199.5C 3234.67,1202.83 3234.67,1206.17 3234,1209.5C 3214.83,1220 3195.67,1230.5 3176.5,1241C 3230.47,1248.83 3284.47,1256.5 3338.5,1264C 3352.64,1265.32 3364.14,1271.49 3373,1282.5C 3373.33,1325.17 3373.67,1367.83 3374,1410.5C 3461.42,1452.1 3540.25,1505.93 3610.5,1572C 3651.59,1612.41 3685.76,1657.91 3713,1708.5C 3759.2,1797.95 3770.53,1891.62 3747,1989.5C 3745.89,2057.95 3728.56,2121.95 3695,2181.5C 3663.35,2235.2 3624.18,2283.03 3577.5,2325C 3507.41,2385.58 3429.75,2434.92 3344.5,2473C 3225.44,2525.46 3101.44,2561.13 2972.5,2580C 2772.62,2609.16 2573.62,2604.16 2375.5,2565C 2254.94,2540.7 2139.94,2500.7 2030.5,2445C 1951.53,2404.37 1880.7,2352.54 1818,2289.5C 1771.83,2241.87 1736.17,2187.21 1711,2125.5C 1694.26,2081.39 1685.59,2035.72 1685,1988.5C 1663.3,1898.61 1671.63,1811.61 1710,1727.5C 1730.02,1685.43 1755.02,1646.76 1785,1611.5C 1835.54,1554.43 1893.04,1506.09 1957.5,1466.5C 1957.5,1471.5 1957.5,1476.5 1957.5,1481.5C 1956.83,1481.5 1956.5,1481.83 1956.5,1482.5C 1889.85,1524.64 1831.35,1576.3 1781,1637.5C 1743.72,1684.72 1716.39,1737.38 1699,1795.5C 1672.16,1906.12 1689.16,2009.46 1750,2105.5C 1780.6,2153.12 1817.43,2195.62 1860.5,2233C 1932.21,2293.89 2011.54,2343.23 2098.5,2381C 2211.74,2430.06 2329.41,2463.73 2451.5,2482C 2682.78,2517.45 2911.78,2506.45 3138.5,2449C 3242.38,2422.05 3341.05,2382.38 3434.5,2330C 3501.61,2291.59 3562.44,2244.76 3617,2189.5C 3660.5,2143.86 3694.5,2091.86 3719,2033.5C 3762.42,1918.1 3753.75,1806.76 3693,1699.5C 3660.33,1644.14 3619.5,1595.3 3570.5,1553C 3510.8,1502.28 3445.46,1459.78 3374.5,1425.5C 3374.51,1577.83 3374.18,1730.17 3373.5,1882.5C 3369.93,1886.24 3365.93,1889.4 3361.5,1892C 3332.45,1907.53 3303.45,1923.03 3274.5,1938.5C 3275.53,1936.45 3277.03,1934.78 3279,1933.5C 3278.91,1733.83 3278.58,1534.17 3278,1334.5C 3269.39,1323.78 3258.23,1317.61 3244.5,1316C 2826.49,1257.48 2408.49,1198.81 1990.5,1140C 1984.39,1139.27 1978.39,1139.77 1972.5,1141.5C 2003.61,1124.11 2034.94,1106.94 2066.5,1090C 2070.84,1088.29 2075.34,1087.46 2080,1087.5C 2087.89,1088.17 2095.72,1089.17 2103.5,1090.5C 2102.15,1098.57 2100.48,1106.57 2098.5,1114.5C 2141.09,1120.73 2183.76,1126.39 2226.5,1131.5C 2222.54,1101.44 2218.21,1071.44 2213.5,1041.5C 2191.17,1041 2168.83,1041.5 2146.5,1043C 2142.78,1043.68 2139.11,1044.51 2135.5,1045.5C 2162.83,1030.17 2190.17,1014.83 2217.5,999.5C 2223.99,1004.48 2230.66,1009.31 2237.5,1014C 2268.74,1032.87 2300.07,1033.2 2331.5,1015C 2351.39,999.726 2362.89,979.559 2366,954.5C 2369.38,904.417 2349.88,866.25 2307.5,840C 2283.35,827.297 2258.35,825.13 2232.5,833.5C 2264.48,815.505 2296.82,798.005 2329.5,781C 2373.64,770.381 2409.81,782.881 2438,818.5C 2460.04,848.697 2466.71,882.03 2458,918.5C 2451.75,940.182 2438.92,956.682 2419.5,968C 2403.5,976.667 2387.5,985.333 2371.5,994C 2376.5,995 2381.5,996 2386.5,997C 2390.24,1000.03 2392.07,1003.86 2392,1008.5C 2387.81,1015.24 2385.81,1022.57 2386,1030.5C 2397.95,1023.44 2410.12,1016.77 2422.5,1010.5C 2419.38,1018.36 2416.55,1026.36 2414,1034.5C 2406.4,1064.7 2398.23,1094.7 2389.5,1124.5C 2386.07,1125.71 2382.74,1127.21 2379.5,1129C 2382.48,1129.7 2385.48,1130.2 2388.5,1130.5C 2386.19,1138.42 2384.19,1146.42 2382.5,1154.5C 2453.14,1164.48 2523.8,1173.98 2594.5,1183C 2588.06,1170.62 2581.23,1158.46 2574,1146.5C 2570.55,1140.14 2567.88,1133.47 2566,1126.5C 2558.55,1076.82 2551.05,1027.15 2543.5,977.5C 2516.89,979.644 2490.22,981.144 2463.5,982C 2457.68,982.91 2452.01,984.41 2446.5,986.5C 2476.77,969.694 2507.1,952.861 2537.5,936C 2542.57,934.035 2547.57,932.202 2552.5,930.5C 2560.66,936.478 2568.99,942.311 2577.5,948C 2603.62,963.019 2631.29,966.686 2660.5,959C 2700.03,944.115 2722.53,915.615 2728,873.5C 2731.55,814.767 2708.72,769.6 2659.5,738C 2630.86,721.391 2600.86,718.224 2569.5,728.5C 2596.61,713.108 2623.94,697.941 2651.5,683C 2687.15,665.429 2722.15,666.762 2756.5,687C 2805.3,719.765 2827.46,765.599 2823,824.5C 2818.41,855.717 2803.24,880.217 2777.5,898C 2756.83,909.333 2736.17,920.667 2715.5,932C 2719.99,933.456 2724.66,934.456 2729.5,935C 2733.92,937.412 2737.75,940.578 2741,944.5C 2739.63,950.271 2737.63,955.938 2735,961.5C 2733.23,967.095 2732.23,972.762 2732,978.5C 2750.7,967.651 2769.7,957.318 2789,947.5C 2818.87,955.843 2848.03,965.843 2876.5,977.5 Z M 2389.5,1124.5 C 2388.85,1126.44 2388.52,1128.44 2388.5,1130.5C 2385.48,1130.2 2382.48,1129.7 2379.5,1129C 2382.74,1127.21 2386.07,1125.71 2389.5,1124.5 Z"/></g>
<g><path style="opacity:0.997" fill="#7ce2fb" d="M 2552.5,930.5 C 2510,887.488 2498.16,837.154 2517,779.5C 2528.13,755.869 2545.63,738.869 2569.5,728.5C 2600.86,718.224 2630.86,721.391 2659.5,738C 2708.72,769.6 2731.55,814.767 2728,873.5C 2722.53,915.615 2700.03,944.115 2660.5,959C 2631.29,966.686 2603.62,963.019 2577.5,948C 2568.99,942.311 2560.66,936.478 2552.5,930.5 Z"/></g>
<g><path style="opacity:0.997" fill="#7ce2fb" d="M 2217.5,999.5 C 2186.24,966.539 2176.08,927.873 2187,883.5C 2194.71,859.964 2209.87,843.298 2232.5,833.5C 2258.35,825.13 2283.35,827.297 2307.5,840C 2349.88,866.25 2369.38,904.417 2366,954.5C 2362.89,979.559 2351.39,999.726 2331.5,1015C 2300.07,1033.2 2268.74,1032.87 2237.5,1014C 2230.66,1009.31 2223.99,1004.48 2217.5,999.5 Z"/></g>
<g><path style="opacity:0.999" fill="#7ce2fb" d="M 2876.5,977.5 C 2884.93,956.069 2899.6,940.402 2920.5,930.5C 2944.24,922.99 2967.57,924.157 2990.5,934C 3032.05,956.758 3053.72,991.925 3055.5,1039.5C 3055,1072 3041.34,1097.17 3014.5,1115C 2977.04,1131.65 2942.71,1126.65 2911.5,1100C 2876.01,1066.02 2864.34,1025.19 2876.5,977.5 Z"/></g>
<g><path style="opacity:0.999" fill="#7ce2fb" d="M 2388.5,1130.5 C 2388.52,1128.44 2388.85,1126.44 2389.5,1124.5C 2398.23,1094.7 2406.4,1064.7 2414,1034.5C 2416.55,1026.36 2419.38,1018.36 2422.5,1010.5C 2426.83,998.833 2434.83,990.833 2446.5,986.5C 2452.01,984.41 2457.68,982.91 2463.5,982C 2490.22,981.144 2516.89,979.644 2543.5,977.5C 2551.05,1027.15 2558.55,1076.82 2566,1126.5C 2567.88,1133.47 2570.55,1140.14 2574,1146.5C 2581.23,1158.46 2588.06,1170.62 2594.5,1183C 2523.8,1173.98 2453.14,1164.48 2382.5,1154.5C 2384.19,1146.42 2386.19,1138.42 2388.5,1130.5 Z"/></g>
<g><path style="opacity:1" fill="#7ce2fb" d="M 2598.5,983.5 C 2611.81,983.412 2624.81,985.246 2637.5,989C 2640.76,991.754 2643.43,994.921 2645.5,998.5C 2640.63,1008.65 2637.63,1019.31 2636.5,1030.5C 2639.06,1063.67 2642.89,1096.67 2648,1129.5C 2650.17,1141.62 2648.17,1152.95 2642,1163.5C 2635.61,1171.72 2629.44,1180.05 2623.5,1188.5C 2619.45,1188.29 2615.95,1186.96 2613,1184.5C 2607.33,1175.17 2601.67,1165.83 2596,1156.5C 2590.25,1147.25 2588.25,1137.25 2590,1126.5C 2593.8,1092.15 2597.63,1057.82 2601.5,1023.5C 2601.47,1019.76 2600.97,1016.1 2600,1012.5C 2597.2,1005.9 2594.7,999.238 2592.5,992.5C 2592.67,991.167 2592.83,989.833 2593,988.5C 2595.19,987.167 2597.02,985.5 2598.5,983.5 Z"/></g>
<g><path style="opacity:1" fill="#7ce2fb" d="M 2693.5,1000.5 C 2722.37,1007.96 2750.7,1017.12 2778.5,1028C 2799.17,1038.16 2812.67,1054.33 2819,1076.5C 2831.38,1122.86 2843.21,1169.36 2854.5,1216C 2854.41,1217.11 2854.08,1218.11 2853.5,1219C 2836.14,1217.57 2818.8,1215.57 2801.5,1213C 2748.47,1205.52 2695.47,1197.85 2642.5,1190C 2649.63,1178.91 2657.13,1168.07 2665,1157.5C 2667.8,1153.56 2669.8,1149.22 2671,1144.5C 2678.18,1096.42 2685.68,1048.42 2693.5,1000.5 Z"/></g>
<g><path style="opacity:0.997" fill="#7ce2fb" d="M 2103.5,1090.5 C 2105.86,1079.93 2109.69,1069.93 2115,1060.5C 2120.28,1053.39 2127.11,1048.39 2135.5,1045.5C 2139.11,1044.51 2142.78,1043.68 2146.5,1043C 2168.83,1041.5 2191.17,1041 2213.5,1041.5C 2218.21,1071.44 2222.54,1101.44 2226.5,1131.5C 2183.76,1126.39 2141.09,1120.73 2098.5,1114.5C 2100.48,1106.57 2102.15,1098.57 2103.5,1090.5 Z"/></g>
<g><path style="opacity:1" fill="#7ce2fb" d="M 2257.5,1044.5 C 2268.9,1045.45 2280.24,1046.95 2291.5,1049C 2293.33,1051.5 2295.17,1054 2297,1056.5C 2294.85,1061.95 2292.85,1067.61 2291,1073.5C 2290.83,1077.17 2290.67,1080.83 2290.5,1084.5C 2291.92,1103.53 2293.59,1122.53 2295.5,1141.5C 2281.84,1139.74 2268.17,1138.07 2254.5,1136.5C 2256.17,1117.3 2258.17,1098.14 2260.5,1079C 2258.82,1069.12 2255.82,1059.62 2251.5,1050.5C 2253.53,1048.49 2255.53,1046.49 2257.5,1044.5 Z"/></g>
<g><path style="opacity:1" fill="#7ce2fb" d="M 2336.5,1057.5 C 2345.16,1060.22 2353.83,1063.05 2362.5,1066C 2363.43,1066.39 2364.09,1067.05 2364.5,1068C 2357.3,1094.82 2350.3,1121.66 2343.5,1148.5C 2337.5,1147.71 2331.5,1146.88 2325.5,1146C 2324.42,1145.33 2323.75,1144.33 2323.5,1143C 2328.04,1114.52 2332.37,1086.02 2336.5,1057.5 Z"/></g>
<g><path style="opacity:1" fill="#7ce2fb" d="M 2873.5,1137.5 C 2883.17,1137.5 2892.83,1137.5 2902.5,1137.5C 2906.44,1167.89 2910.78,1198.22 2915.5,1228.5C 2910.01,1227.87 2904.51,1227.2 2899,1226.5C 2897.34,1226.32 2896.01,1225.66 2895,1224.5C 2887.05,1195.7 2879.88,1166.7 2873.5,1137.5 Z"/></g>
<g><path style="opacity:0.999" fill="#7de2fb" d="M 3274.5,1938.5 C 3268.52,1943.63 3261.52,1945.63 3253.5,1944.5C 3232.69,1942.67 3212.02,1940 3191.5,1936.5C 3144.87,1929.87 3098.21,1923.54 3051.5,1917.5C 3045.66,1916.33 3039.66,1915.33 3033.5,1914.5C 2987.14,1908.02 2940.81,1901.35 2894.5,1894.5C 2888.44,1894.3 2882.44,1893.63 2876.5,1892.5C 2875.79,1891.6 2874.79,1891.26 2873.5,1891.5C 2820.62,1884.59 2767.79,1877.26 2715,1869.5C 2713.74,1869.65 2712.58,1869.98 2711.5,1870.5C 2711.39,1869.88 2711.06,1869.38 2710.5,1869C 2701.47,1867.97 2692.47,1866.81 2683.5,1865.5C 2629.66,1857.67 2575.66,1850 2521.5,1842.5C 2515.19,1841.65 2508.85,1840.98 2502.5,1840.5C 2455.74,1833.11 2408.74,1826.44 2361.5,1820.5C 2356.07,1818.99 2350.4,1818.32 2344.5,1818.5C 2298.71,1811.33 2252.71,1804.67 2206.5,1798.5C 2178.47,1794.57 2150.3,1790.57 2122,1786.5C 2120.57,1786.86 2119.4,1787.53 2118.5,1788.5C 2118.5,1787.5 2118.5,1786.5 2118.5,1785.5C 2091.79,1782.13 2065.13,1778.46 2038.5,1774.5C 2024.47,1773 2010.47,1771.16 1996.5,1769C 1979.63,1766.82 1967.13,1758.32 1959,1743.5C 1958.5,1741.53 1958.34,1739.53 1958.5,1737.5C 1958.83,1652 1958.5,1566.67 1957.5,1481.5C 1957.5,1476.5 1957.5,1471.5 1957.5,1466.5C 1957.42,1362.5 1957.92,1258.5 1959,1154.5C 1961.41,1147.92 1965.91,1143.59 1972.5,1141.5C 1978.39,1139.77 1984.39,1139.27 1990.5,1140C 2408.49,1198.81 2826.49,1257.48 3244.5,1316C 3258.23,1317.61 3269.39,1323.78 3278,1334.5C 3278.58,1534.17 3278.91,1733.83 3279,1933.5C 3277.03,1934.78 3275.53,1936.45 3274.5,1938.5 Z M 2110.5,1220.5 C 2252.83,1240.5 2395.17,1260.5 2537.5,1280.5C 2480.52,1286.69 2423.85,1295.69 2367.5,1307.5C 2318.69,1300.46 2269.86,1293.46 2221,1286.5C 2187.97,1302.93 2155.47,1320.26 2123.5,1338.5C 2113.32,1343.91 2110.82,1351.91 2116,1362.5C 2123.28,1369.89 2132.11,1373.55 2142.5,1373.5C 2132.46,1377.91 2122.29,1382.24 2112,1386.5C 2110.54,1331.19 2110.04,1275.86 2110.5,1220.5 Z"/></g>
<g><path style="opacity:1" fill="#7ce2fb" d="M 2946.5,1141.5 C 2956.89,1142.12 2967.23,1143.28 2977.5,1145C 2981.98,1147.45 2984.81,1150.95 2986,1155.5C 2981.18,1162.8 2978.68,1170.8 2978.5,1179.5C 2980.24,1198.88 2982.24,1218.21 2984.5,1237.5C 2971.2,1237.39 2958.03,1235.72 2945,1232.5C 2944.33,1224.17 2944.33,1215.83 2945,1207.5C 2947.74,1194.62 2948.74,1181.62 2948,1168.5C 2945.78,1161.72 2943.28,1155.06 2940.5,1148.5C 2942.52,1146.15 2944.52,1143.81 2946.5,1141.5 Z"/></g>
<g><path style="opacity:1" fill="#7ce2fb" d="M 3024.5,1154.5 C 3049.06,1161.96 3073.39,1170.13 3097.5,1179C 3113.32,1187.11 3124.15,1199.61 3130,1216.5C 3134.13,1231 3137.29,1245.67 3139.5,1260.5C 3097.45,1254.78 3055.45,1248.78 3013.5,1242.5C 3013.17,1241.33 3012.83,1240.17 3012.5,1239C 3017.09,1210.9 3021.09,1182.74 3024.5,1154.5 Z"/></g>
<g><path style="opacity:1" fill="#60bbd9" d="M 2110.5,1220.5 C 2110.04,1275.86 2110.54,1331.19 2112,1386.5C 2122.29,1382.24 2132.46,1377.91 2142.5,1373.5C 2152.05,1374.2 2161.39,1375.53 2170.5,1377.5C 2150.33,1384.78 2130.33,1392.44 2110.5,1400.5C 2110.98,1485.83 2111.31,1571.17 2111.5,1656.5C 2482.18,1708.41 2852.85,1760.41 3223.5,1812.5C 3223.5,1834.17 3223.5,1855.83 3223.5,1877.5C 2821.15,1821.26 2418.82,1764.93 2016.5,1708.5C 2016.5,1541.16 2016.34,1373.83 2016,1206.5C 2047.62,1211.06 2079.12,1215.73 2110.5,1220.5 Z"/></g>
<g><path style="opacity:0.998" fill="#60bbd9" d="M 2537.5,1280.5 C 2553.55,1282.21 2569.55,1284.38 2585.5,1287C 2588.05,1287 2590.05,1287.84 2591.5,1289.5C 2529.37,1293.63 2467.7,1301.47 2406.5,1313C 2674.61,1350.35 2942.61,1388.35 3210.5,1427C 3218.02,1432.22 3220.85,1439.38 3219,1448.5C 3217.97,1451.54 3216.14,1454.04 3213.5,1456C 3182.94,1472.78 3152.27,1489.28 3121.5,1505.5C 3126.47,1495.98 3125.14,1487.48 3117.5,1480C 3115.04,1478.44 3112.38,1477.44 3109.5,1477C 2780.84,1430.72 2452.18,1384.56 2123.5,1338.5C 2155.47,1320.26 2187.97,1302.93 2221,1286.5C 2269.86,1293.46 2318.69,1300.46 2367.5,1307.5C 2423.85,1295.69 2480.52,1286.69 2537.5,1280.5 Z"/></g>
<g><path style="opacity:1" fill="#f7f7f7" d="M 2591.5,1289.5 C 2603.9,1289.87 2616.23,1291.03 2628.5,1293C 2826.46,1321.16 3024.46,1348.99 3222.5,1376.5C 3222.69,1521.83 3223.02,1667.17 3223.5,1812.5C 2852.85,1760.41 2482.18,1708.41 2111.5,1656.5C 2111.31,1571.17 2110.98,1485.83 2110.5,1400.5C 2130.33,1392.44 2150.33,1384.78 2170.5,1377.5C 2478.56,1420.15 2786.56,1463.32 3094.5,1507C 3102.47,1508.26 3110.47,1508.6 3118.5,1508C 3119.57,1507.15 3120.57,1506.31 3121.5,1505.5C 3152.27,1489.28 3182.94,1472.78 3213.5,1456C 3216.14,1454.04 3217.97,1451.54 3219,1448.5C 3220.85,1439.38 3218.02,1432.22 3210.5,1427C 2942.61,1388.35 2674.61,1350.35 2406.5,1313C 2467.7,1301.47 2529.37,1293.63 2591.5,1289.5 Z"/></g>
<g><path style="opacity:0.999" fill="#aee8fb" d="M 2123.5,1338.5 C 2452.18,1384.56 2780.84,1430.72 3109.5,1477C 3112.38,1477.44 3115.04,1478.44 3117.5,1480C 3125.14,1487.48 3126.47,1495.98 3121.5,1505.5C 3120.57,1506.31 3119.57,1507.15 3118.5,1508C 3110.47,1508.6 3102.47,1508.26 3094.5,1507C 2786.56,1463.32 2478.56,1420.15 2170.5,1377.5C 2161.39,1375.53 2152.05,1374.2 2142.5,1373.5C 2132.11,1373.55 2123.28,1369.89 2116,1362.5C 2110.82,1351.91 2113.32,1343.91 2123.5,1338.5 Z"/></g>
<g><path style="opacity:1" fill="#60bbd9" d="M 3121.5,1623.5 C 3128.3,1612.2 3125.97,1603.04 3114.5,1596C 2784.92,1548.89 2455.26,1502.39 2125.5,1456.5C 2155.94,1439.44 2186.61,1422.61 2217.5,1406C 2222.17,1405.33 2226.83,1405.33 2231.5,1406C 2556.15,1451.76 2880.82,1497.43 3205.5,1543C 3215.49,1546.66 3220.32,1553.83 3220,1564.5C 3219.27,1567.62 3217.77,1570.29 3215.5,1572.5C 3184.43,1590.03 3153.1,1607.03 3121.5,1623.5 Z"/></g>
<g><path style="opacity:1" fill="#f7f7f7" d="M 1956.5,1482.5 C 1957.17,1567.5 1957.83,1652.5 1958.5,1737.5C 1958.34,1739.53 1958.5,1741.53 1959,1743.5C 1967.13,1758.32 1979.63,1766.82 1996.5,1769C 2010.47,1771.16 2024.47,1773 2038.5,1774.5C 2019.52,1785.66 2000.19,1796.33 1980.5,1806.5C 1963.88,1830.85 1962.38,1856.19 1976,1882.5C 1992.07,1916.25 2014.57,1945.08 2043.5,1969C 2110.89,2022.25 2185.23,2063.91 2266.5,2094C 2506.57,2183.92 2754.24,2215.92 3009.5,2190C 3061.79,2183.34 3112.13,2169.68 3160.5,2149C 3174.37,2142.57 3187.71,2135.4 3200.5,2127.5C 3229.1,2112.87 3257.43,2097.7 3285.5,2082C 3306.07,2069.76 3325.24,2055.6 3343,2039.5C 3350.9,2030.7 3357.57,2021.04 3363,2010.5C 3372.51,1985.96 3369.84,1962.96 3355,1941.5C 3343.38,1928.96 3329.22,1924.46 3312.5,1928C 3281.61,1944.61 3250.94,1961.44 3220.5,1978.5C 3216.92,1979.43 3214.26,1981.43 3212.5,1984.5C 3221.18,2009.09 3218.18,2032.09 3203.5,2053.5C 3152.08,2066.97 3099.75,2074.47 3046.5,2076C 2936.98,2079.88 2827.98,2074.05 2719.5,2058.5C 2734.08,2058.2 2747.41,2053.86 2759.5,2045.5C 2791.16,2028.67 2822.49,2011.34 2853.5,1993.5C 2868.22,2008.52 2885.89,2013.68 2906.5,2009C 2912.34,2006.92 2917.67,2004.08 2922.5,2000.5C 2945.14,1988.51 2967.81,1976.51 2990.5,1964.5C 2991.25,1993.85 3004.59,2015.35 3030.5,2029C 3041.28,2032.82 3052.28,2033.49 3063.5,2031C 3068.37,2029.67 3072.7,2027.5 3076.5,2024.5C 3109.1,2007.53 3141.43,1990.03 3173.5,1972C 3183.34,1962.15 3189.34,1950.31 3191.5,1936.5C 3212.02,1940 3232.69,1942.67 3253.5,1944.5C 3261.52,1945.63 3268.52,1943.63 3274.5,1938.5C 3303.45,1923.03 3332.45,1907.53 3361.5,1892C 3365.93,1889.4 3369.93,1886.24 3373.5,1882.5C 3374.18,1730.17 3374.51,1577.83 3374.5,1425.5C 3445.46,1459.78 3510.8,1502.28 3570.5,1553C 3619.5,1595.3 3660.33,1644.14 3693,1699.5C 3753.75,1806.76 3762.42,1918.1 3719,2033.5C 3694.5,2091.86 3660.5,2143.86 3617,2189.5C 3562.44,2244.76 3501.61,2291.59 3434.5,2330C 3341.05,2382.38 3242.38,2422.05 3138.5,2449C 2911.78,2506.45 2682.78,2517.45 2451.5,2482C 2329.41,2463.73 2211.74,2430.06 2098.5,2381C 2011.54,2343.23 1932.21,2293.89 1860.5,2233C 1817.43,2195.62 1780.6,2153.12 1750,2105.5C 1689.16,2009.46 1672.16,1906.12 1699,1795.5C 1716.39,1737.38 1743.72,1684.72 1781,1637.5C 1831.35,1576.3 1889.85,1524.64 1956.5,1482.5 Z"/></g>
<g><path style="opacity:1" fill="#aee9fb" d="M 2125.5,1456.5 C 2455.26,1502.39 2784.92,1548.89 3114.5,1596C 3125.97,1603.04 3128.3,1612.2 3121.5,1623.5C 3119.78,1625.69 3117.45,1626.86 3114.5,1627C 3111.17,1627.67 3107.83,1627.67 3104.5,1627C 2780.14,1581.52 2455.81,1535.85 2131.5,1490C 2117.43,1486.37 2112.27,1477.53 2116,1463.5C 2118.5,1460.15 2121.67,1457.82 2125.5,1456.5 Z"/></g>
<g><path style="opacity:1" fill="#c5eff9" d="M 1956.5,1482.5 C 1956.5,1481.83 1956.83,1481.5 1957.5,1481.5C 1958.5,1566.67 1958.83,1652 1958.5,1737.5C 1957.83,1652.5 1957.17,1567.5 1956.5,1482.5 Z"/></g>
<g><path style="opacity:1" fill="#60bbd9" d="M 3122.5,1741.5 C 3129.02,1726.04 3124.02,1716.54 3107.5,1713C 2779.82,1667.2 2452.15,1621.37 2124.5,1575.5C 2151.61,1560.11 2178.94,1544.94 2206.5,1530C 2211.39,1527.14 2216.56,1524.97 2222,1523.5C 2551.22,1569.72 2880.39,1616.22 3209.5,1663C 3220.17,1668.85 3223.01,1677.35 3218,1688.5C 3186.54,1706.81 3154.71,1724.48 3122.5,1741.5 Z"/></g>
<g><path style="opacity:1" fill="#aee9fb" d="M 2124.5,1575.5 C 2452.15,1621.37 2779.82,1667.2 3107.5,1713C 3124.02,1716.54 3129.02,1726.04 3122.5,1741.5C 3117.8,1745.09 3112.47,1746.25 3106.5,1745C 2781.52,1699.34 2456.52,1653.67 2131.5,1608C 2119.24,1605 2113.74,1597.17 2115,1584.5C 2116.74,1579.92 2119.91,1576.92 2124.5,1575.5 Z"/></g>
<g><path style="opacity:1" fill="#60bbd9" d="M 2038.5,1774.5 C 2065.13,1778.46 2091.79,1782.13 2118.5,1785.5C 2118.5,1786.5 2118.5,1787.5 2118.5,1788.5C 2118.93,1814.13 2127.59,1836.46 2144.5,1855.5C 2148.82,1881.32 2162.82,1899.82 2186.5,1911C 2197.78,1914.16 2209.12,1914.33 2220.5,1911.5C 2279.91,1945.36 2342.58,1971.86 2408.5,1991C 2434.99,1998.88 2461.65,2006.05 2488.5,2012.5C 2497.41,2019.89 2507.41,2025.39 2518.5,2029C 2529.98,2031.36 2541.32,2030.86 2552.5,2027.5C 2553.42,2028.13 2554.42,2028.46 2555.5,2028.5C 2606.52,2039.5 2657.86,2048.84 2709.5,2056.5C 2712.86,2057.04 2716.2,2057.71 2719.5,2058.5C 2827.98,2074.05 2936.98,2079.88 3046.5,2076C 3099.75,2074.47 3152.08,2066.97 3203.5,2053.5C 3200.35,2058.92 3196.35,2063.75 3191.5,2068C 3177.51,2079.5 3161.84,2088.17 3144.5,2094C 3107.79,2106.95 3070.12,2115.95 3031.5,2121C 2962.02,2128.72 2892.36,2131.05 2822.5,2128C 2645.14,2119.71 2471.47,2090.04 2301.5,2039C 2224.08,2015.78 2151.75,1982.12 2084.5,1938C 2069.44,1927.28 2055.94,1914.78 2044,1900.5C 2028.14,1879.41 2021.81,1855.74 2025,1829.5C 2026.49,1824.36 2028.66,1819.52 2031.5,1815C 2014.31,1812.56 1997.31,1809.73 1980.5,1806.5C 2000.19,1796.33 2019.52,1785.66 2038.5,1774.5 Z"/></g>
<g><path style="opacity:1" fill="#f7f7f7" d="M 2206.5,1798.5 C 2186.67,1808.92 2167,1819.58 2147.5,1830.5C 2146.71,1831.61 2146.21,1832.94 2146,1834.5C 2145.83,1841.68 2145.33,1848.68 2144.5,1855.5C 2127.59,1836.46 2118.93,1814.13 2118.5,1788.5C 2119.4,1787.53 2120.57,1786.86 2122,1786.5C 2150.3,1790.57 2178.47,1794.57 2206.5,1798.5 Z"/></g>
<g><path style="opacity:1" fill="#60bbd9" d="M 2206.5,1798.5 C 2252.71,1804.67 2298.71,1811.33 2344.5,1818.5C 2344.14,1822.91 2343.64,1827.24 2343,1831.5C 2349.31,1827.93 2355.48,1824.27 2361.5,1820.5C 2408.74,1826.44 2455.74,1833.11 2502.5,1840.5C 2501.88,1844.92 2500.88,1849.25 2499.5,1853.5C 2507.16,1851 2514.49,1847.34 2521.5,1842.5C 2575.66,1850 2629.66,1857.67 2683.5,1865.5C 2683.33,1872.17 2683.5,1878.84 2684,1885.5C 2693.11,1880.36 2702.28,1875.36 2711.5,1870.5C 2712.58,1869.98 2713.74,1869.65 2715,1869.5C 2767.79,1877.26 2820.62,1884.59 2873.5,1891.5C 2873.18,1896.36 2873.51,1901.03 2874.5,1905.5C 2881.52,1902.33 2888.19,1898.66 2894.5,1894.5C 2940.81,1901.35 2987.14,1908.02 3033.5,1914.5C 3032.98,1919.13 3031.98,1923.63 3030.5,1928C 3037.66,1925.09 3044.66,1921.59 3051.5,1917.5C 3098.21,1923.54 3144.87,1929.87 3191.5,1936.5C 3189.34,1950.31 3183.34,1962.15 3173.5,1972C 3141.43,1990.03 3109.1,2007.53 3076.5,2024.5C 3089.71,2012.59 3096.37,1997.59 3096.5,1979.5C 3096.48,1974.07 3095.81,1968.74 3094.5,1963.5C 3060.75,1959.39 3027.08,1954.73 2993.5,1949.5C 2991.96,1954.39 2990.96,1959.39 2990.5,1964.5C 2967.81,1976.51 2945.14,1988.51 2922.5,2000.5C 2933.91,1988.94 2939.25,1974.94 2938.5,1958.5C 2938.27,1952.82 2937.93,1947.15 2937.5,1941.5C 2903.17,1936.83 2868.83,1932.17 2834.5,1927.5C 2830.3,1952.71 2836.63,1974.71 2853.5,1993.5C 2822.49,2011.34 2791.16,2028.67 2759.5,2045.5C 2759.06,2045.57 2758.73,2045.4 2758.5,2045C 2772.33,2031.53 2779.16,2015.03 2779,1995.5C 2779.78,1970.15 2779.61,1944.82 2778.5,1919.5C 2736.85,1913.72 2695.18,1908.06 2653.5,1902.5C 2653.5,1926.17 2653.5,1949.83 2653.5,1973.5C 2624.81,1988.85 2596.14,2004.18 2567.5,2019.5C 2578.77,2009.3 2585.6,1996.64 2588,1981.5C 2588.78,1951.82 2588.62,1922.15 2587.5,1892.5C 2545.81,1886.69 2504.14,1880.69 2462.5,1874.5C 2462.5,1879.17 2462.5,1883.83 2462.5,1888.5C 2438.5,1901.17 2414.5,1913.83 2390.5,1926.5C 2402.61,1914.84 2408.28,1900.51 2407.5,1883.5C 2407.66,1877.85 2407,1872.35 2405.5,1867C 2371.48,1862.2 2337.48,1857.37 2303.5,1852.5C 2302.95,1857.48 2302.61,1862.48 2302.5,1867.5C 2278.33,1880.75 2253.99,1893.75 2229.5,1906.5C 2243.36,1895.3 2250.36,1880.63 2250.5,1862.5C 2249.83,1856.82 2249.17,1851.16 2248.5,1845.5C 2214.69,1840.58 2181.02,1835.58 2147.5,1830.5C 2167,1819.58 2186.67,1808.92 2206.5,1798.5 Z"/></g>
<g><path style="opacity:1" fill="#aee8fb" d="M 1980.5,1806.5 C 1997.31,1809.73 2014.31,1812.56 2031.5,1815C 2028.66,1819.52 2026.49,1824.36 2025,1829.5C 2021.81,1855.74 2028.14,1879.41 2044,1900.5C 2055.94,1914.78 2069.44,1927.28 2084.5,1938C 2151.75,1982.12 2224.08,2015.78 2301.5,2039C 2471.47,2090.04 2645.14,2119.71 2822.5,2128C 2892.36,2131.05 2962.02,2128.72 3031.5,2121C 3070.12,2115.95 3107.79,2106.95 3144.5,2094C 3161.84,2088.17 3177.51,2079.5 3191.5,2068C 3196.35,2063.75 3200.35,2058.92 3203.5,2053.5C 3218.18,2032.09 3221.18,2009.09 3212.5,1984.5C 3214.26,1981.43 3216.92,1979.43 3220.5,1978.5C 3246.82,1977.75 3263.65,1990.09 3271,2015.5C 3276.51,2040.46 3271.18,2062.8 3255,2082.5C 3238.39,2099.63 3220.22,2114.63 3200.5,2127.5C 3187.71,2135.4 3174.37,2142.57 3160.5,2149C 3112.13,2169.68 3061.79,2183.34 3009.5,2190C 2754.24,2215.92 2506.57,2183.92 2266.5,2094C 2185.23,2063.91 2110.89,2022.25 2043.5,1969C 2014.57,1945.08 1992.07,1916.25 1976,1882.5C 1962.38,1856.19 1963.88,1830.85 1980.5,1806.5 Z"/></g>
<g><path style="opacity:1" fill="#f3f6f7" d="M 2344.5,1818.5 C 2350.4,1818.32 2356.07,1818.99 2361.5,1820.5C 2355.48,1824.27 2349.31,1827.93 2343,1831.5C 2343.64,1827.24 2344.14,1822.91 2344.5,1818.5 Z"/></g>
<g><path style="opacity:1" fill="#7ce2fb" d="M 2147.5,1830.5 C 2181.02,1835.58 2214.69,1840.58 2248.5,1845.5C 2249.17,1851.16 2249.83,1856.82 2250.5,1862.5C 2250.36,1880.63 2243.36,1895.3 2229.5,1906.5C 2226.63,1908.43 2223.63,1910.1 2220.5,1911.5C 2209.12,1914.33 2197.78,1914.16 2186.5,1911C 2162.82,1899.82 2148.82,1881.32 2144.5,1855.5C 2145.33,1848.68 2145.83,1841.68 2146,1834.5C 2146.21,1832.94 2146.71,1831.61 2147.5,1830.5 Z"/></g>
<g><path style="opacity:1" fill="#f5f7f7" d="M 2502.5,1840.5 C 2508.85,1840.98 2515.19,1841.65 2521.5,1842.5C 2514.49,1847.34 2507.16,1851 2499.5,1853.5C 2500.88,1849.25 2501.88,1844.92 2502.5,1840.5 Z"/></g>
<g><path style="opacity:1" fill="#7de2fb" d="M 2390.5,1926.5 C 2365.21,1941.53 2342.04,1938.53 2321,1917.5C 2308.82,1903.13 2302.65,1886.46 2302.5,1867.5C 2302.61,1862.48 2302.95,1857.48 2303.5,1852.5C 2337.48,1857.37 2371.48,1862.2 2405.5,1867C 2407,1872.35 2407.66,1877.85 2407.5,1883.5C 2408.28,1900.51 2402.61,1914.84 2390.5,1926.5 Z"/></g>
<g><path style="opacity:1" fill="#f6f7f7" d="M 2683.5,1865.5 C 2692.47,1866.81 2701.47,1867.97 2710.5,1869C 2711.06,1869.38 2711.39,1869.88 2711.5,1870.5C 2702.28,1875.36 2693.11,1880.36 2684,1885.5C 2683.5,1878.84 2683.33,1872.17 2683.5,1865.5 Z"/></g>
<g><path style="opacity:1" fill="#f7f7f7" d="M 2302.5,1867.5 C 2302.65,1886.46 2308.82,1903.13 2321,1917.5C 2342.04,1938.53 2365.21,1941.53 2390.5,1926.5C 2414.5,1913.83 2438.5,1901.17 2462.5,1888.5C 2462.33,1912.17 2462.5,1935.84 2463,1959.5C 2465.11,1980.38 2473.61,1998.04 2488.5,2012.5C 2461.65,2006.05 2434.99,1998.88 2408.5,1991C 2342.58,1971.86 2279.91,1945.36 2220.5,1911.5C 2223.63,1910.1 2226.63,1908.43 2229.5,1906.5C 2253.99,1893.75 2278.33,1880.75 2302.5,1867.5 Z"/></g>
<g><path style="opacity:1" fill="#7de2fb" d="M 2567.5,2019.5 C 2563.56,2022.48 2559.22,2024.98 2554.5,2027C 2555.06,2027.38 2555.39,2027.88 2555.5,2028.5C 2554.42,2028.46 2553.42,2028.13 2552.5,2027.5C 2541.32,2030.86 2529.98,2031.36 2518.5,2029C 2507.41,2025.39 2497.41,2019.89 2488.5,2012.5C 2473.61,1998.04 2465.11,1980.38 2463,1959.5C 2462.5,1935.84 2462.33,1912.17 2462.5,1888.5C 2462.5,1883.83 2462.5,1879.17 2462.5,1874.5C 2504.14,1880.69 2545.81,1886.69 2587.5,1892.5C 2588.62,1922.15 2588.78,1951.82 2588,1981.5C 2585.6,1996.64 2578.77,2009.3 2567.5,2019.5 Z"/></g>
<g><path style="opacity:1" fill="#c3e5ef" d="M 2873.5,1891.5 C 2874.79,1891.26 2875.79,1891.6 2876.5,1892.5C 2874.57,1896.37 2873.9,1900.71 2874.5,1905.5C 2873.51,1901.03 2873.18,1896.36 2873.5,1891.5 Z"/></g>
<g><path style="opacity:1" fill="#f6f7f7" d="M 2876.5,1892.5 C 2882.44,1893.63 2888.44,1894.3 2894.5,1894.5C 2888.19,1898.66 2881.52,1902.33 2874.5,1905.5C 2873.9,1900.71 2874.57,1896.37 2876.5,1892.5 Z"/></g>
<g><path style="opacity:1" fill="#7de2fb" d="M 2759.5,2045.5 C 2747.41,2053.86 2734.08,2058.2 2719.5,2058.5C 2716.2,2057.71 2712.86,2057.04 2709.5,2056.5C 2680.95,2047.11 2662.78,2027.77 2655,1998.5C 2653.82,1990.21 2653.32,1981.87 2653.5,1973.5C 2653.5,1949.83 2653.5,1926.17 2653.5,1902.5C 2695.18,1908.06 2736.85,1913.72 2778.5,1919.5C 2779.61,1944.82 2779.78,1970.15 2779,1995.5C 2779.16,2015.03 2772.33,2031.53 2758.5,2045C 2758.73,2045.4 2759.06,2045.57 2759.5,2045.5 Z"/></g>
<g><path style="opacity:1" fill="#f4f6f7" d="M 3033.5,1914.5 C 3039.66,1915.33 3045.66,1916.33 3051.5,1917.5C 3044.66,1921.59 3037.66,1925.09 3030.5,1928C 3031.98,1923.63 3032.98,1919.13 3033.5,1914.5 Z"/></g>
<g><path style="opacity:1" fill="#60bbd9" d="M 3200.5,2127.5 C 3220.22,2114.63 3238.39,2099.63 3255,2082.5C 3271.18,2062.8 3276.51,2040.46 3271,2015.5C 3263.65,1990.09 3246.82,1977.75 3220.5,1978.5C 3250.94,1961.44 3281.61,1944.61 3312.5,1928C 3329.22,1924.46 3343.38,1928.96 3355,1941.5C 3369.84,1962.96 3372.51,1985.96 3363,2010.5C 3357.57,2021.04 3350.9,2030.7 3343,2039.5C 3325.24,2055.6 3306.07,2069.76 3285.5,2082C 3257.43,2097.7 3229.1,2112.87 3200.5,2127.5 Z"/></g>
<g><path style="opacity:1" fill="#7de2fb" d="M 2922.5,2000.5 C 2917.67,2004.08 2912.34,2006.92 2906.5,2009C 2885.89,2013.68 2868.22,2008.52 2853.5,1993.5C 2836.63,1974.71 2830.3,1952.71 2834.5,1927.5C 2868.83,1932.17 2903.17,1936.83 2937.5,1941.5C 2937.93,1947.15 2938.27,1952.82 2938.5,1958.5C 2939.25,1974.94 2933.91,1988.94 2922.5,2000.5 Z"/></g>
<g><path style="opacity:1" fill="#7de2fb" d="M 3076.5,2024.5 C 3072.7,2027.5 3068.37,2029.67 3063.5,2031C 3052.28,2033.49 3041.28,2032.82 3030.5,2029C 3004.59,2015.35 2991.25,1993.85 2990.5,1964.5C 2990.96,1959.39 2991.96,1954.39 2993.5,1949.5C 3027.08,1954.73 3060.75,1959.39 3094.5,1963.5C 3095.81,1968.74 3096.48,1974.07 3096.5,1979.5C 3096.37,1997.59 3089.71,2012.59 3076.5,2024.5 Z"/></g>
<g><path style="opacity:1" fill="#f6f7f7" d="M 2653.5,1973.5 C 2653.32,1981.87 2653.82,1990.21 2655,1998.5C 2662.78,2027.77 2680.95,2047.11 2709.5,2056.5C 2657.86,2048.84 2606.52,2039.5 2555.5,2028.5C 2555.39,2027.88 2555.06,2027.38 2554.5,2027C 2559.22,2024.98 2563.56,2022.48 2567.5,2019.5C 2596.14,2004.18 2624.81,1988.85 2653.5,1973.5 Z"/></g>
</svg>
