<?xml version="1.0" encoding="UTF-8"?>
<!DOCTYPE svg PUBLIC "-//W3C//DTD SVG 1.1//EN" "http://www.w3.org/Graphics/SVG/1.1/DTD/svg11.dtd">
<svg xmlns="http://www.w3.org/2000/svg" version="1.1" width="5334px" height="3205px" style="shape-rendering:geometricPrecision; text-rendering:geometricPrecision; image-rendering:optimizeQuality; fill-rule:evenodd; clip-rule:evenodd" xmlns:xlink="http://www.w3.org/1999/xlink">
<g><path style="opacity:0.995" fill="#7de9f9" d="M 1408.5,1199.5 C 1487.99,1197.32 1548.15,1229.98 1589,1297.5C 1613.25,1344.15 1618.25,1392.82 1604,1443.5C 1583.04,1507.39 1540.54,1549.56 1476.5,1570C 1401.05,1588.95 1336.22,1570.79 1282,1515.5C 1233.7,1457.42 1221.7,1392.42 1246,1320.5C 1276.96,1249.05 1331.12,1208.72 1408.5,1199.5 Z"/></g>
<g><path style="opacity:0.995" fill="#1360a7" d="M 3992.5,1199.5 C 4070.36,1196.84 4129.86,1228.17 4171,1293.5C 4205,1356.83 4205,1420.17 4171,1483.5C 4126.93,1552.62 4063.76,1583.45 3981.5,1576C 3913.12,1564.6 3863.95,1527.77 3834,1465.5C 3805.77,1393.69 3815.1,1327.36 3862,1266.5C 3896.5,1226.83 3940,1204.5 3992.5,1199.5 Z"/></g>
<g><path style="opacity:1" fill="#2480a9" d="M 3226.5,1561.5 C 3226.5,1608.17 3226.5,1654.83 3226.5,1701.5C 2892.83,1701.5 2559.17,1701.5 2225.5,1701.5C 2225.5,1654.83 2225.5,1608.17 2225.5,1561.5C 2559.17,1561.5 2892.83,1561.5 3226.5,1561.5 Z"/></g>
<g><path style="opacity:0.994" fill="#1f708c" d="M 3226.5,1561.5 C 3252.5,1561.5 3278.5,1561.5 3304.5,1561.5C 3304.5,1608.5 3304.5,1655.5 3304.5,1702.5C 3278.5,1702.5 3252.5,1702.5 3226.5,1702.5C 2892.83,1702.5 2559.17,1702.5 2225.5,1702.5C 2225.5,1702.17 2225.5,1701.83 2225.5,1701.5C 2559.17,1701.5 2892.83,1701.5 3226.5,1701.5C 3226.5,1654.83 3226.5,1608.17 3226.5,1561.5 Z"/></g>
<g><path style="opacity:0.999" fill="#7deafa" d="M 1567.5,1632.5 C 1605.7,1649.02 1639.2,1672.36 1668,1702.5C 1722.91,1765.28 1732.91,1834.61 1698,1910.5C 1677.69,1946.81 1649.86,1975.97 1614.5,1998C 1546.16,2038.76 1472.16,2056.1 1392.5,2050C 1334.96,2045.95 1281.63,2028.95 1232.5,1999C 1192.48,1974.32 1162.32,1940.82 1142,1898.5C 1114.52,1827.45 1125.52,1763.12 1175,1705.5C 1198.25,1680.39 1224.75,1659.72 1254.5,1643.5C 1329.18,1607.38 1407.51,1596.21 1489.5,1610C 1516.33,1614.78 1542.33,1622.28 1567.5,1632.5 Z"/></g>
<g><path style="opacity:0.999" fill="#1361a7" d="M 4151.5,1632.5 C 4190.73,1649.21 4224.89,1673.21 4254,1704.5C 4304.88,1762.98 4315.88,1828.31 4287,1900.5C 4263.66,1946.84 4229.16,1982.34 4183.5,2007C 4091.6,2054.08 3995.93,2063.41 3896.5,2035C 3839.45,2018.08 3791.61,1987.25 3753,1942.5C 3709.12,1886.01 3700.12,1824.34 3726,1757.5C 3747.03,1714.13 3778.2,1679.96 3819.5,1655C 3826.39,1651.39 3833.06,1647.56 3839.5,1643.5C 3911.8,1608.28 3987.8,1596.78 4067.5,1609C 4096.48,1613.49 4124.48,1621.33 4151.5,1632.5 Z"/></g>
<g><path style="opacity:1" fill="#fcfdfe" d="M 2289.5,1607.5 C 2308.46,1604.82 2319.46,1612.82 2322.5,1631.5C 2321.17,1646.83 2312.83,1655.17 2297.5,1656.5C 2282.39,1655.23 2274.06,1647.06 2272.5,1632C 2273.29,1620.39 2278.95,1612.22 2289.5,1607.5 Z"/></g>
<g><path style="opacity:1" fill="#fdfefe" d="M 2352.5,1607.5 C 2377,1606.16 2387.16,1617.49 2383,1641.5C 2376.88,1653.56 2367.05,1658.39 2353.5,1656C 2338.53,1649.55 2333.03,1638.38 2337,1622.5C 2340.08,1615.25 2345.25,1610.25 2352.5,1607.5 Z"/></g>
<g><path style="opacity:1" fill="#fcfdfe" d="M 2418.5,1607.5 C 2440.82,1605.37 2451.65,1615.37 2451,1637.5C 2445.92,1651.96 2435.76,1658.12 2420.5,1656C 2406.88,1650.95 2400.72,1641.12 2402,1626.5C 2404.87,1617.8 2410.37,1611.47 2418.5,1607.5 Z"/></g>
<g><path style="opacity:0.999" fill="#f7f7f7" d="M 1567.5,1632.5 C 1667.27,1643.19 1761.6,1671.69 1850.5,1718C 1905.1,1746.91 1951.94,1785.41 1991,1833.5C 2023.41,1875.73 2040.58,1923.56 2042.5,1977C 2041.85,1986.51 2041.19,1996.01 2040.5,2005.5C 2032.82,2050.19 2014.82,2090.19 1986.5,2125.5C 1985.31,2126.43 1983.98,2126.76 1982.5,2126.5C 1982.66,2128.2 1982.49,2129.87 1982,2131.5C 1941.06,2178.11 1892.9,2215.28 1837.5,2243C 1743.97,2288.39 1645.3,2315.72 1541.5,2325C 1415.52,2336.86 1291.85,2325.2 1170.5,2290C 1096.06,2267.78 1028.06,2233.45 966.5,2187C 931.485,2159.38 902.651,2126.54 880,2088.5C 865.877,2062.96 856.377,2035.96 851.5,2007.5C 844.669,1945.15 859.836,1888.82 897,1838.5C 928.85,1797.53 966.684,1763.36 1010.5,1736C 1086.11,1690.51 1167.44,1659.68 1254.5,1643.5C 1224.75,1659.72 1198.25,1680.39 1175,1705.5C 1125.52,1763.12 1114.52,1827.45 1142,1898.5C 1162.32,1940.82 1192.48,1974.32 1232.5,1999C 1281.63,2028.95 1334.96,2045.95 1392.5,2050C 1472.16,2056.1 1546.16,2038.76 1614.5,1998C 1649.86,1975.97 1677.69,1946.81 1698,1910.5C 1732.91,1834.61 1722.91,1765.28 1668,1702.5C 1639.2,1672.36 1605.7,1649.02 1567.5,1632.5 Z"/></g>
<g><path style="opacity:0.999" fill="#f7f7f7" d="M 4151.5,1632.5 C 4252.81,1643.44 4348.48,1672.61 4438.5,1720C 4488.47,1746.94 4531.97,1782.1 4569,1825.5C 4597.9,1860.47 4616.23,1900.47 4624,1945.5C 4627.06,1965.49 4627.23,1985.49 4624.5,2005.5C 4616.11,2054.62 4595.61,2097.95 4563,2135.5C 4523.96,2178.42 4478.79,2213.25 4427.5,2240C 4338.15,2284.59 4243.81,2312.26 4144.5,2323C 4014.73,2337.94 3887.06,2327.61 3761.5,2292C 3681.2,2269.18 3608.53,2232.18 3543.5,2181C 3505.76,2150.61 3476.26,2113.78 3455,2070.5C 3445.72,2049.18 3439.22,2027.18 3435.5,2004.5C 3429.93,1955.1 3439.43,1908.77 3464,1865.5C 3488.39,1824.43 3519.89,1789.6 3558.5,1761C 3617.61,1718.45 3682.28,1686.45 3752.5,1665C 3781.08,1656.1 3810.08,1648.94 3839.5,1643.5C 3833.06,1647.56 3826.39,1651.39 3819.5,1655C 3778.2,1679.96 3747.03,1714.13 3726,1757.5C 3700.12,1824.34 3709.12,1886.01 3753,1942.5C 3791.61,1987.25 3839.45,2018.08 3896.5,2035C 3995.93,2063.41 4091.6,2054.08 4183.5,2007C 4229.16,1982.34 4263.66,1946.84 4287,1900.5C 4315.88,1828.31 4304.88,1762.98 4254,1704.5C 4224.89,1673.21 4190.73,1649.21 4151.5,1632.5 Z"/></g>
<g><path style="opacity:1" fill="#0e4a80" d="M 2225.5,1702.5 C 2559.17,1702.5 2892.83,1702.5 3226.5,1702.5C 3226.5,1903.83 3226.5,2105.17 3226.5,2306.5C 2892.83,2306.5 2559.17,2306.5 2225.5,2306.5C 2225.5,2256.17 2225.5,2205.83 2225.5,2155.5C 2225.5,2145.83 2225.5,2136.17 2225.5,2126.5C 2225.5,1985.17 2225.5,1843.83 2225.5,1702.5 Z"/></g>
<g><path style="opacity:0.994" fill="#0b436d" d="M 3226.5,1702.5 C 3252.5,1702.5 3278.5,1702.5 3304.5,1702.5C 3304.5,1843.83 3304.5,1985.17 3304.5,2126.5C 3303.18,2136.07 3303.18,2145.74 3304.5,2155.5C 3304.5,2205.83 3304.5,2256.17 3304.5,2306.5C 3278.5,2306.5 3252.5,2306.5 3226.5,2306.5C 3226.5,2105.17 3226.5,1903.83 3226.5,1702.5 Z"/></g>
<g><path style="opacity:1" fill="#fefefe" d="M 2758.5,2189.5 C 2758.5,2191.17 2758.5,2192.83 2758.5,2194.5C 2719.5,2194.5 2680.5,2194.5 2641.5,2194.5C 2606.55,2126.19 2567.38,2060.86 2524,1998.5C 2534.44,1991.03 2544.6,1983.2 2554.5,1975C 2556.05,1973.71 2557.72,1973.04 2559.5,1973C 2601.38,2012.05 2643.72,2050.55 2686.5,2088.5C 2785.16,1983.68 2883.66,1878.68 2982,1773.5C 2990.08,1778.46 2998.25,1783.29 3006.5,1788C 2932.49,1881.69 2864.32,1979.52 2802,2081.5C 2785.97,2108.9 2772.63,2137.57 2762,2167.5C 2759.73,2174.67 2758.57,2182 2758.5,2189.5 Z"/></g>
<g><path style="opacity:0.987" fill="#cbcbcb" d="M 2040.5,2005.5 C 2045.42,2047.29 2039.09,2087.29 2021.5,2125.5C 2089.5,2126.5 2157.5,2126.83 2225.5,2126.5C 2225.5,2136.17 2225.5,2145.83 2225.5,2155.5C 2152.17,2155.33 2078.83,2155.5 2005.5,2156C 1971.85,2205.32 1929.52,2245.32 1878.5,2276C 1812.16,2315.66 1741.16,2343.99 1665.5,2361C 1502.82,2397.16 1341.15,2393.16 1180.5,2349C 1104.93,2327.54 1035.59,2293.88 972.5,2248C 934.576,2219.08 903.409,2184.25 879,2143.5C 855.125,2100.96 845.959,2055.62 851.5,2007.5C 856.377,2035.96 865.877,2062.96 880,2088.5C 902.651,2126.54 931.485,2159.38 966.5,2187C 1028.06,2233.45 1096.06,2267.78 1170.5,2290C 1291.85,2325.2 1415.52,2336.86 1541.5,2325C 1645.3,2315.72 1743.97,2288.39 1837.5,2243C 1892.9,2215.28 1941.06,2178.11 1982,2131.5C 1982.49,2129.87 1982.66,2128.2 1982.5,2126.5C 1983.98,2126.76 1985.31,2126.43 1986.5,2125.5C 2014.82,2090.19 2032.82,2050.19 2040.5,2005.5 Z"/></g>
<g><path style="opacity:0.987" fill="#cbcbcb" d="M 3435.5,2004.5 C 3439.22,2027.18 3445.72,2049.18 3455,2070.5C 3476.26,2113.78 3505.76,2150.61 3543.5,2181C 3608.53,2232.18 3681.2,2269.18 3761.5,2292C 3887.06,2327.61 4014.73,2337.94 4144.5,2323C 4243.81,2312.26 4338.15,2284.59 4427.5,2240C 4478.79,2213.25 4523.96,2178.42 4563,2135.5C 4595.61,2097.95 4616.11,2054.62 4624.5,2005.5C 4630.72,2060.9 4618.55,2111.9 4588,2158.5C 4565.04,2193.13 4536.88,2222.96 4503.5,2248C 4443.3,2291.76 4377.3,2324.43 4305.5,2346C 4148.09,2391.29 3989.09,2397.63 3828.5,2365C 3743.09,2347.78 3663.43,2316.45 3589.5,2271C 3542.01,2240.84 3502.34,2202.51 3470.5,2156C 3415.17,2155.5 3359.83,2155.33 3304.5,2155.5C 3303.18,2145.74 3303.18,2136.07 3304.5,2126.5C 3354.5,2126.83 3404.5,2126.5 3454.5,2125.5C 3436.8,2086.96 3430.47,2046.63 3435.5,2004.5 Z"/></g>
<g><path style="opacity:1" fill="#84a2be" d="M 2758.5,2189.5 C 2759.46,2191.26 2759.79,2193.26 2759.5,2195.5C 2720,2195.83 2680.66,2195.5 2641.5,2194.5C 2680.5,2194.5 2719.5,2194.5 2758.5,2194.5C 2758.5,2192.83 2758.5,2191.17 2758.5,2189.5 Z"/></g>
</svg>
