<?xml version="1.0" encoding="UTF-8"?>
<!DOCTYPE svg PUBLIC "-//W3C//DTD SVG 1.1//EN" "http://www.w3.org/Graphics/SVG/1.1/DTD/svg11.dtd">
<svg xmlns="http://www.w3.org/2000/svg" version="1.1" width="5334px" height="3205px" style="shape-rendering:geometricPrecision; text-rendering:geometricPrecision; image-rendering:optimizeQuality; fill-rule:evenodd; clip-rule:evenodd" xmlns:xlink="http://www.w3.org/1999/xlink">
<g><path style="opacity:0.998" fill="#4691e4" d="M 2046.5,818.5 C 2299.5,818.333 2552.5,818.5 2805.5,819C 2871.79,821.549 2922.96,850.382 2959,905.5C 3085.67,1124.83 3212.33,1344.17 3339,1563.5C 3371.67,1624.5 3371.67,1685.5 3339,1746.5C 3212.33,1965.83 3085.67,2185.17 2959,2404.5C 2926.84,2453.85 2881.34,2482.35 2822.5,2490C 2558.17,2490.67 2293.83,2490.67 2029.5,2490C 1971.84,2482.93 1927,2455.43 1895,2407.5C 1767.59,2186.34 1639.92,1965.34 1512,1744.5C 1483.87,1690.58 1481.54,1635.58 1505,1579.5C 1630.41,1361 1756.08,1142.67 1882,924.5C 1916.78,858.252 1971.61,822.918 2046.5,818.5 Z"/></g>
<g><path style="opacity:1" fill="#fefefe" d="M 2299.5,1314.5 C 2300.21,1315.4 2301.21,1315.74 2302.5,1315.5C 2302.5,1432.83 2302.5,1550.17 2302.5,1667.5C 2257.83,1667.17 2213.16,1667.5 2168.5,1668.5C 2168.62,1669.11 2168.96,1669.44 2169.5,1669.5C 2245.8,1745.63 2322.3,1821.63 2399,1897.5C 2474.14,1821.36 2549.64,1745.53 2625.5,1670C 2580.5,1669.5 2535.5,1669.33 2490.5,1669.5C 2490.5,1551.5 2490.5,1433.5 2490.5,1315.5C 2497.49,1315 2504.49,1314.5 2511.5,1314C 2643.83,1313.33 2776.17,1313.33 2908.5,1314C 2944.21,1317.71 2962.71,1337.55 2964,1373.5C 2964.67,1557.5 2964.67,1741.5 2964,1925.5C 2964.77,1943.56 2960.44,1960.23 2951,1975.5C 2939.3,1988.08 2924.8,1994.91 2907.5,1996C 2568.5,1996.67 2229.5,1996.67 1890.5,1996C 1874.98,1995.71 1861.31,1990.71 1849.5,1981C 1839.32,1969.15 1833.82,1955.32 1833,1939.5C 1831.35,1751.51 1831.02,1563.51 1832,1375.5C 1832.68,1337.49 1851.84,1316.99 1889.5,1314C 2026.17,1313.19 2162.84,1313.36 2299.5,1314.5 Z"/></g>
<g><path style="opacity:1" fill="#d0e3f7" d="M 2299.5,1314.5 C 2300.83,1314.5 2302.17,1314.5 2303.5,1314.5C 2303.5,1432.17 2303.5,1549.83 2303.5,1667.5C 2303.17,1667.5 2302.83,1667.5 2302.5,1667.5C 2302.5,1550.17 2302.5,1432.83 2302.5,1315.5C 2301.21,1315.74 2300.21,1315.4 2299.5,1314.5 Z"/></g>
<g><path style="opacity:1" fill="#a2c7f1" d="M 2302.5,1667.5 C 2302.83,1667.5 2303.17,1667.5 2303.5,1667.5C 2258.83,1668.17 2214.17,1668.83 2169.5,1669.5C 2168.96,1669.44 2168.62,1669.11 2168.5,1668.5C 2213.16,1667.5 2257.83,1667.17 2302.5,1667.5 Z"/></g>
</svg>
