<svg width="111" height="95" viewBox="0 0 111 95" fill="none" xmlns="http://www.w3.org/2000/svg">
<path d="M36.7105 4.17195C20.593 11.1795 6.43773 27.297 1.53242 47.3386C-7.43727 82.797 25.6385 107.464 45.8203 87.1417C56.0514 76.7704 43.2976 51.1227 74.1309 27.1568C90.2483 14.5432 67.8241 -9.42274 36.7105 4.17195Z" fill="#FDE8D7"/>
<path d="M76.6624 76.775H42.045C39.1018 76.775 36.7192 74.3924 36.7192 71.4493V22.8167C36.7192 19.8735 39.1018 17.4909 42.045 17.4909H76.8026C79.7458 17.4909 82.1283 19.8735 82.1283 22.8167V71.4493C81.9882 74.3924 79.6056 76.775 76.6624 76.775ZM43.0261 23.2371C42.4655 23.2371 41.9048 23.6576 41.9048 24.3584V70.0478C41.9048 70.6084 42.3253 71.169 43.0261 71.169H75.5412C76.1018 71.169 76.6624 70.7485 76.6624 70.0478V24.3584C76.6624 23.7978 76.242 23.2371 75.5412 23.2371H43.0261Z" fill="#4261BD"/>
<path d="M33.0755 62.6197L53.3975 49.3053C55.0793 48.1841 55.0793 45.8015 53.3975 44.8205L33.0755 31.5061C31.2536 30.3849 28.871 31.6462 28.871 33.7485V39.9152H18.4998C17.0983 39.9152 15.9771 41.0364 15.9771 42.4379V51.5477C15.9771 52.9493 17.0983 54.0705 18.4998 54.0705H28.871V60.3773C28.871 62.4796 31.2536 63.7409 33.0755 62.6197Z" fill="#F27E4C"/>
<path d="M103.852 84.7636L79.8859 74.5326C78.7647 73.972 77.9238 72.8508 77.9238 71.5894V22.9568C77.9238 21.6955 78.6246 20.5743 79.8859 20.0137L103.852 9.7826C105.954 8.94169 108.337 10.4834 108.337 12.7258V81.8205C108.337 84.203 106.094 85.7447 103.852 84.7636Z" fill="#3E97F0"/>
<path d="M105.113 9.50229C106.795 9.50229 108.337 10.9038 108.337 12.7258V81.8205C108.337 83.6425 106.935 84.9038 105.253 85.044H107.776C109.458 85.044 110.859 83.6425 110.859 81.8205V12.7258C110.859 10.9038 109.318 9.50229 107.636 9.50229H105.113Z" fill="#294996"/>
<path d="M69.2347 45.241C62.2271 43.8394 58.1627 63.8811 64.89 65.0023C72.7385 66.2637 77.5036 46.9228 69.2347 45.241Z" fill="#FDE8D7"/>
</svg>
